<?xml version="1.0" encoding="UTF-8"?>
<!DOCTYPE svg PUBLIC "-//W3C//DTD SVG 1.1//EN" "http://www.w3.org/Graphics/SVG/1.1/DTD/svg11.dtd">
<svg xmlns="http://www.w3.org/2000/svg" version="1.1" width="589px" height="560px" style="shape-rendering:geometricPrecision; text-rendering:geometricPrecision; image-rendering:optimizeQuality; fill-rule:evenodd; clip-rule:evenodd" xmlns:xlink="http://www.w3.org/1999/xlink">
<g><path style="opacity:1" fill="#fdfdfd" d="M -0.5,-0.5 C 195.833,-0.5 392.167,-0.5 588.5,-0.5C 588.5,186.167 588.5,372.833 588.5,559.5C 392.167,559.5 195.833,559.5 -0.5,559.5C -0.5,372.833 -0.5,186.167 -0.5,-0.5 Z"/></g>
<g><path style="opacity:1" fill="#0b0b0b" d="M 504.5,47.5 C 491.833,48.1667 479.167,48.8333 466.5,49.5C 447.091,53.2456 434.758,64.5789 429.5,83.5C 428.517,87.2984 428.183,91.2984 428.5,95.5C 425.5,95.5 422.5,95.5 419.5,95.5C 417.92,77.8019 424.253,63.3019 438.5,52C 459.528,37.1202 481.528,35.6202 504.5,47.5 Z"/></g>
<g><path style="opacity:1" fill="#070707" d="M 100.5,41.5 C 130.841,41.1668 161.174,41.5002 191.5,42.5C 190.041,44.583 188.708,46.7497 187.5,49C 156.167,49.3333 124.833,49.6667 93.5,50C 85.817,51.0022 78.1503,51.6689 70.5,52C 79.6442,45.7238 89.6442,42.2238 100.5,41.5 Z"/></g>
<g><path style="opacity:1" fill="#030303" d="M 276.5,41.5 C 291.848,41.1673 307.181,41.5006 322.5,42.5C 328.23,50.9022 333.563,59.5689 338.5,68.5C 331.469,79.0325 324.636,89.6992 318,100.5C 311.794,91.9239 305.961,83.0905 300.5,74C 286.167,73.6667 271.833,73.3333 257.5,73C 264.484,62.8596 270.818,52.3596 276.5,41.5 Z"/></g>
<g><path style="opacity:1" fill="#a9a9a9" d="M 504.5,47.5 C 505.043,47.56 505.376,47.8933 505.5,48.5C 492.517,49.4991 479.517,49.8325 466.5,49.5C 479.167,48.8333 491.833,48.1667 504.5,47.5 Z"/></g>
<g><path style="opacity:1" fill="#121212" d="M 103.5,53.5 C 130.508,53.1669 157.508,53.5002 184.5,54.5C 183.294,57.0794 181.961,59.5794 180.5,62C 153.833,62.3333 127.167,62.6667 100.5,63C 84.8532,66.8813 69.1865,70.2147 53.5,73C 55.6902,68.1369 58.6902,63.8035 62.5,60C 76.3038,57.8094 89.9705,55.6427 103.5,53.5 Z"/></g>
<g><path style="opacity:1" fill="#080808" d="M 519.5,60.5 C 519.611,61.1174 519.944,61.6174 520.5,62C 503.995,62.1685 487.662,62.6685 471.5,63.5C 453.112,66.2224 444.112,76.8891 444.5,95.5C 441.167,95.5 437.833,95.5 434.5,95.5C 434.412,74.0817 444.745,60.5817 465.5,55C 481.833,54.3333 498.167,54.3333 514.5,55C 516.373,56.7038 518.04,58.5372 519.5,60.5 Z"/></g>
<g><path style="opacity:1" fill="#727272" d="M 519.5,60.5 C 521.048,60.8212 521.715,61.8212 521.5,63.5C 504.833,63.5 488.167,63.5 471.5,63.5C 487.662,62.6685 503.995,62.1685 520.5,62C 519.944,61.6174 519.611,61.1174 519.5,60.5 Z"/></g>
<g><path style="opacity:1" fill="#111111" d="M 103.5,66.5 C 128.167,66.5 152.833,66.5 177.5,66.5C 176.759,69.634 175.759,72.634 174.5,75.5C 150.498,75.3334 126.498,75.5 102.5,76C 85.4553,84.2229 68.122,91.7229 50.5,98.5C 50.5,93.1667 50.5,87.8333 50.5,82.5C 68.4964,77.9429 86.163,72.6096 103.5,66.5 Z"/></g>
<g><path style="opacity:1" fill="#909090" d="M 525.5,69.5 C 505.806,69.2157 486.14,69.549 466.5,70.5C 467.263,69.7321 468.263,69.2321 469.5,69C 488.338,68.1712 507.005,68.3378 525.5,69.5 Z"/></g>
<g><path style="opacity:1" fill="#101010" d="M 525.5,69.5 C 527.31,72.145 528.31,75.145 528.5,78.5C 508.497,78.3334 488.497,78.5 468.5,79C 462.019,82.6205 459.685,87.9539 461.5,95C 457.848,95.4986 454.182,95.6653 450.5,95.5C 450.047,83.3952 455.38,75.0619 466.5,70.5C 486.14,69.549 505.806,69.2157 525.5,69.5 Z"/></g>
<g><path style="opacity:1" fill="#040404" d="M 341.5,75.5 C 343.624,76.0312 345.124,77.3645 346,79.5C 351.333,88.1667 356.667,96.8333 362,105.5C 362.982,106.759 363.315,108.092 363,109.5C 356.625,119.751 350.125,129.918 343.5,140C 330.82,140.833 318.154,140.666 305.5,139.5C 299.167,129.5 292.833,119.5 286.5,109.5C 298.152,108.667 309.819,108.167 321.5,108C 328.392,97.2815 335.058,86.4482 341.5,75.5 Z"/></g>
<g><path style="opacity:1" fill="#080808" d="M 103.5,79.5 C 126.169,79.3334 148.836,79.5 171.5,80C 170.167,82.3333 168.833,84.6667 167.5,87C 146.5,87.3333 125.5,87.6667 104.5,88C 90.684,99.739 76.684,111.239 62.5,122.5C 58.3667,118.578 55.8667,113.911 55,108.5C 71.3128,98.9332 87.4795,89.2665 103.5,79.5 Z"/></g>
<g><path style="opacity:1" fill="#050505" d="M 297.5,139.5 C 284.01,140.496 270.344,140.829 256.5,140.5C 249.462,130.115 242.795,119.449 236.5,108.5C 240.896,99.3751 246.063,90.7084 252,82.5C 252.483,81.552 252.649,80.552 252.5,79.5C 266.516,79.1674 280.516,79.5008 294.5,80.5C 289.083,89.6686 283.417,98.6686 277.5,107.5C 284.178,118.195 290.844,128.861 297.5,139.5 Z"/></g>
<g><path style="opacity:1" fill="#0d0d0d" d="M 421.5,106.5 C 440.645,104.837 459.978,103.837 479.5,103.5C 487.368,100.594 490.368,95.0943 488.5,87C 491.817,86.5017 495.15,86.335 498.5,86.5C 499.725,100.772 493.392,109.605 479.5,113C 461.167,113.667 442.833,113.667 424.5,113C 423.207,110.948 422.207,108.781 421.5,106.5 Z"/></g>
<g><path style="opacity:1" fill="#0d0d0d" d="M 505.5,86.5 C 508.833,86.5 512.167,86.5 515.5,86.5C 514.826,110.016 502.826,123.849 479.5,128C 464.833,128.667 450.167,128.667 435.5,128C 432.931,125.521 430.598,122.854 428.5,120C 445.5,119.667 462.5,119.333 479.5,119C 497.298,115.378 505.964,104.544 505.5,86.5 Z"/></g>
<g><path style="opacity:1" fill="#090909" d="M 444.5,134.5 C 457.167,133.833 469.833,133.167 482.5,132.5C 507.741,127.589 520.741,112.256 521.5,86.5C 524.5,86.5 527.5,86.5 530.5,86.5C 530.322,115.192 516.322,133.359 488.5,141C 472.946,144.533 458.28,142.366 444.5,134.5 Z"/></g>
<g><path style="opacity:1" fill="#090909" d="M 104.5,92.5 C 124.511,92.167 144.511,92.5004 164.5,93.5C 163.041,95.583 161.708,97.7497 160.5,100C 157.118,100.176 153.785,100.676 150.5,101.5C 152.545,103.759 154.211,106.259 155.5,109C 153.948,113.951 151.281,118.117 147.5,121.5C 143.776,115.057 140.276,108.391 137,101.5C 135.644,100.62 134.144,100.286 132.5,100.5C 134.212,110.307 136.546,119.973 139.5,129.5C 134.691,133.238 129.358,135.904 123.5,137.5C 123.325,125.161 122.992,112.828 122.5,100.5C 120.833,100.5 119.167,100.5 117.5,100.5C 116.279,113.823 115.279,127.157 114.5,140.5C 109.204,141.509 103.871,141.676 98.5,141C 97.4844,140.481 96.8178,139.647 96.5,138.5C 100.579,125.933 104.245,113.266 107.5,100.5C 106.178,100.33 105.011,100.663 104,101.5C 98.1482,113.876 91.8148,125.876 85,137.5C 79.4552,135.981 74.6219,133.314 70.5,129.5C 81.8553,117.147 93.1886,104.813 104.5,92.5 Z"/></g>
<g><path style="opacity:1" fill="#9e9e9e" d="M 429.5,83.5 C 429.5,87.8333 429.5,92.1667 429.5,96.5C 425.958,96.8128 422.625,96.4794 419.5,95.5C 422.5,95.5 425.5,95.5 428.5,95.5C 428.183,91.2984 428.517,87.2984 429.5,83.5 Z"/></g>
<g><path style="opacity:1" fill="#b2b2b2" d="M 479.5,103.5 C 459.978,103.837 440.645,104.837 421.5,106.5C 420.596,105.791 420.263,104.791 420.5,103.5C 440.167,103.5 459.833,103.5 479.5,103.5 Z"/></g>
<g><path style="opacity:1" fill="#c7c7c7" d="M 482.5,132.5 C 469.833,133.167 457.167,133.833 444.5,134.5C 443.957,134.44 443.624,134.107 443.5,133.5C 456.483,132.501 469.483,132.168 482.5,132.5 Z"/></g>
<g><path style="opacity:1" fill="#bcbcbc" d="M 297.5,139.5 C 298.043,139.56 298.376,139.893 298.5,140.5C 284.339,141.826 270.339,141.826 256.5,140.5C 270.344,140.829 284.01,140.496 297.5,139.5 Z"/></g>
<g><path style="opacity:1" fill="#848484" d="M 506.5,180.5 C 492.99,180.171 479.656,180.504 466.5,181.5C 465.957,181.44 465.624,181.107 465.5,180.5C 479.328,179.174 492.994,179.174 506.5,180.5 Z"/></g>
<g><path style="opacity:1" fill="#070707" d="M 111.5,180.5 C 115.923,181.876 120.256,183.543 124.5,185.5C 126.655,195.412 127.822,205.412 128,215.5C 105.667,230.833 83.3333,246.167 61,261.5C 77.2709,234.322 94.1042,207.322 111.5,180.5 Z"/></g>
<g><path style="opacity:1" fill="#040404" d="M 442.5,180.5 C 447.875,180.172 453.208,180.505 458.5,181.5C 462.833,188.167 467.167,194.833 471.5,201.5C 458.667,221.833 445.833,242.167 433,262.5C 425.785,251.903 418.952,241.07 412.5,230C 422.641,213.544 432.641,197.044 442.5,180.5 Z"/></g>
<g><path style="opacity:1" fill="#030303" d="M 506.5,180.5 C 517.204,196.736 527.538,213.236 537.5,230C 536.09,232.818 534.423,235.485 532.5,238C 522.151,238.832 511.817,238.666 501.5,237.5C 489.807,218.816 478.14,200.149 466.5,181.5C 479.656,180.504 492.99,180.171 506.5,180.5 Z"/></g>
<g><path style="opacity:1" fill="#0f0f0f" d="M 295.5,274.5 C 295.5,275.167 295.167,275.5 294.5,275.5C 273.902,267.565 262.902,252.565 261.5,230.5C 262.703,215.087 269.369,202.754 281.5,193.5C 263.819,200.825 254.486,214.158 253.5,233.5C 254.028,251.662 262.028,265.329 277.5,274.5C 276.833,274.5 276.167,274.5 275.5,274.5C 248.766,261.016 240.266,240.016 250,211.5C 254.116,203.717 259.95,197.55 267.5,193C 268.696,192.346 268.696,191.846 267.5,191.5C 242.368,203.696 233.535,223.363 241,250.5C 245.29,260.954 252.457,268.621 262.5,273.5C 262.5,274.167 262.167,274.5 261.5,274.5C 238.151,264.152 227.984,246.152 231,220.5C 239.339,197.336 255.839,185.003 280.5,183.5C 292.469,183.877 303.136,187.711 312.5,195C 308.937,193.906 305.27,192.739 301.5,191.5C 278.264,199.943 267.764,216.61 270,241.5C 272.761,257.06 281.261,268.06 295.5,274.5 Z"/></g>
<g><path style="opacity:1" fill="#8f8f8f" d="M 338.5,185.5 C 337.833,185.5 337.167,185.5 336.5,185.5C 333.689,185.174 331.022,184.341 328.5,183C 332.114,182.903 335.447,183.737 338.5,185.5 Z"/></g>
<g><path style="opacity:1" fill="#060606" d="M 131.5,186.5 C 148.225,212.266 164.725,238.266 181,264.5C 181.667,265.5 181.667,266.5 181,267.5C 177.559,269.276 174.392,271.443 171.5,274C 170.167,274.667 168.833,274.667 167.5,274C 158.282,269.822 149.115,265.655 140,261.5C 137.128,236.487 134.295,211.487 131.5,186.5 Z"/></g>
<g><path style="opacity:1" fill="#0f0f0f" d="M 340.5,196.5 C 356.493,215.553 357.66,235.553 344,256.5C 339.606,261.078 335.439,265.078 331.5,268.5C 353.389,259.069 363.222,242.402 361,218.5C 359.318,208.792 354.818,200.792 347.5,194.5C 344.455,190.801 340.788,187.801 336.5,185.5C 337.167,185.5 337.833,185.5 338.5,185.5C 368.125,200.676 375.958,223.342 362,253.5C 347.874,272.677 329.041,279.843 305.5,275C 298.457,272.943 292.123,269.609 286.5,265C 290.063,266.094 293.73,267.261 297.5,268.5C 315.17,263.328 325.67,251.661 329,233.5C 331.736,208.796 321.569,191.963 298.5,183C 318.379,187.541 331.212,199.707 337,219.5C 339.644,239.945 332.477,255.778 315.5,267C 314.304,267.654 314.304,268.154 315.5,268.5C 339.865,257.104 349.365,238.104 344,211.5C 339.097,196.931 329.264,187.431 314.5,183C 324.378,185.015 333.044,189.515 340.5,196.5 Z"/></g>
<g><path style="opacity:1" fill="#b0b0b0" d="M 281.5,193.5 C 282.002,191.915 283.002,191.415 284.5,192C 283.756,193.039 282.756,193.539 281.5,193.5 Z"/></g>
<g><path style="opacity:1" fill="#efefef" d="M 347.5,194.5 C 354.818,200.792 359.318,208.792 361,218.5C 363.222,242.402 353.389,259.069 331.5,268.5C 335.439,265.078 339.606,261.078 344,256.5C 357.66,235.553 356.493,215.553 340.5,196.5C 341.043,196.44 341.376,196.107 341.5,195.5C 340.52,194.019 339.353,192.685 338,191.5C 337.312,190.668 337.479,190.002 338.5,189.5C 340.818,190.949 342.818,192.782 344.5,195C 345.577,195.47 346.577,195.303 347.5,194.5 Z"/></g>
<g><path style="opacity:1" fill="#030303" d="M 451.5,244.5 C 476.842,244.167 502.175,244.5 527.5,245.5C 520.698,256.8 513.698,267.966 506.5,279C 485.159,279.833 463.826,279.666 442.5,278.5C 440.914,275.659 439.08,272.993 437,270.5C 441.523,261.799 446.357,253.132 451.5,244.5 Z"/></g>
<g><path style="opacity:1" fill="#030303" d="M 165.5,278.5 C 132.338,279.498 99.0042,279.832 65.5,279.5C 64.7803,275.3 64.1136,270.967 63.5,266.5C 72.2636,260.37 81.097,254.37 90,248.5C 115.071,258.8 140.238,268.8 165.5,278.5 Z"/></g>
<g><path style="opacity:1" fill="#929292" d="M 262.5,273.5 C 264.512,274.228 266.512,275.062 268.5,276C 265.788,276.826 263.455,276.326 261.5,274.5C 262.167,274.5 262.5,274.167 262.5,273.5 Z"/></g>
<g><path style="opacity:1" fill="#888888" d="M 275.5,274.5 C 276.167,274.5 276.833,274.5 277.5,274.5C 280.311,274.826 282.978,275.659 285.5,277C 281.79,277.406 278.456,276.572 275.5,274.5 Z"/></g>
<g><path style="opacity:1" fill="#9b9b9b" d="M 295.5,274.5 C 297.512,275.228 299.512,276.062 301.5,277C 298.861,277.588 296.527,277.088 294.5,275.5C 295.167,275.5 295.5,275.167 295.5,274.5 Z"/></g>
<g><path style="opacity:1" fill="#c9c9c9" d="M 165.5,278.5 C 166.289,278.783 166.956,279.283 167.5,280C 133.331,280.831 99.3309,280.664 65.5,279.5C 99.0042,279.832 132.338,279.498 165.5,278.5 Z"/></g>
<g><path style="opacity:1" fill="#080808" d="M 272.5,355.5 C 272.989,360.975 274.989,365.808 278.5,370C 277.014,374.368 276.181,378.868 276,383.5C 269.091,378.102 263.924,371.435 260.5,363.5C 257.068,339.868 266.735,324.368 289.5,317C 311.258,312.948 327.425,320.448 338,339.5C 338.402,340.872 338.902,342.205 339.5,343.5C 339.167,343.833 338.833,344.167 338.5,344.5C 333.833,343.167 329.166,341.833 324.5,340.5C 314.037,327.183 301.037,324.016 285.5,331C 276.537,336.762 272.203,344.929 272.5,355.5 Z"/></g>
<g><path style="opacity:1" fill="#101010" d="M 103.5,316.5 C 106.518,316.335 109.518,316.502 112.5,317C 107.192,325.795 101.526,334.295 95.5,342.5C 93.7745,340.772 92.4411,338.772 91.5,336.5C 92.5588,334.466 93.5588,332.466 94.5,330.5C 97.985,326.21 100.985,321.543 103.5,316.5 Z"/></g>
<g><path style="opacity:1" fill="#0e0e0e" d="M 129.5,316.5 C 132.898,316.18 136.232,316.513 139.5,317.5C 141.344,319.982 142.677,322.649 143.5,325.5C 139.774,325.177 136.107,325.511 132.5,326.5C 124.708,338.582 117.042,350.749 109.5,363C 108.668,363.688 108.002,363.521 107.5,362.5C 106.74,360.64 105.74,358.973 104.5,357.5C 113.096,343.972 121.429,330.306 129.5,316.5 Z"/></g>
<g><path style="opacity:1" fill="#0e0e0e" d="M 473.5,334.5 C 479.709,341.279 486.376,347.613 493.5,353.5C 491.613,355.04 489.78,356.707 488,358.5C 477.261,348.55 466.428,338.717 455.5,329C 448.833,325.667 442.167,325.667 435.5,329C 428.954,335.221 427.787,342.387 432,350.5C 435.035,353.87 438.368,356.87 442,359.5C 442.47,360.577 442.303,361.577 441.5,362.5C 440.102,364.109 438.435,364.942 436.5,365C 430.91,360.746 426.41,355.579 423,349.5C 419.317,335.034 424.483,325.201 438.5,320C 447.284,318.192 455.284,319.858 462.5,325C 465.744,328.75 469.411,331.917 473.5,334.5 Z"/></g>
<g><path style="opacity:1" fill="#0e0e0e" d="M 505.5,372.5 C 500.519,376.476 495.519,380.476 490.5,384.5C 488.833,383.167 487.167,381.833 485.5,380.5C 495.524,370.309 506.024,360.643 517,351.5C 523.94,336.947 519.44,328.614 503.5,326.5C 500.705,326.453 498.039,326.953 495.5,328C 491.322,331.513 487.155,335.013 483,338.5C 480.684,337.35 478.85,335.683 477.5,333.5C 481.589,330.917 485.256,327.75 488.5,324C 506.093,314.559 519.26,318.726 528,336.5C 528.882,342.974 527.549,348.974 524,354.5C 517.938,360.73 511.771,366.73 505.5,372.5 Z"/></g>
<g><path style="opacity:1" fill="#0f0f0f" d="M 81.5,328.5 C 84.8984,328.18 88.2317,328.513 91.5,329.5C 90.5328,331.63 89.3662,333.63 88,335.5C 87.3333,336.833 87.3333,338.167 88,339.5C 92.2755,346.405 96.7755,353.072 101.5,359.5C 104.444,364.799 107.444,370.133 110.5,375.5C 107.628,376.783 104.795,376.783 102,375.5C 94,362.833 86,350.167 78,337.5C 77.5022,333.832 78.6688,330.832 81.5,328.5 Z"/></g>
<g><path style="opacity:1" fill="#0e0e0e" d="M 135.5,328.5 C 144.173,328.334 152.84,328.5 161.5,329C 162.585,331.172 163.919,333.172 165.5,335C 154.485,335.832 143.485,335.666 132.5,334.5C 134.038,332.757 135.038,330.757 135.5,328.5 Z"/></g>
<g><path style="opacity:1" fill="#eaeaea" d="M 116.5,316.5 C 110.939,325.945 105.105,335.279 99,344.5C 98.5407,347.93 99.5407,350.93 102,353.5C 110.354,341.449 118.188,329.115 125.5,316.5C 126.964,315.595 128.298,315.595 129.5,316.5C 121.429,330.306 113.096,343.972 104.5,357.5C 102.973,357.427 101.973,358.094 101.5,359.5C 96.7755,353.072 92.2755,346.405 88,339.5C 87.3333,338.167 87.3333,336.833 88,335.5C 89.3662,333.63 90.5328,331.63 91.5,329.5C 88.2317,328.513 84.8984,328.18 81.5,328.5C 85.3507,327.191 89.3507,327.191 93.5,328.5C 93.8627,329.183 94.1961,329.85 94.5,330.5C 93.5588,332.466 92.5588,334.466 91.5,336.5C 92.4411,338.772 93.7745,340.772 95.5,342.5C 101.526,334.295 107.192,325.795 112.5,317C 109.518,316.502 106.518,316.335 103.5,316.5C 106.563,315.799 109.73,315.132 113,314.5C 113.816,315.823 114.983,316.489 116.5,316.5 Z"/></g>
<g><path style="opacity:1" fill="#111111" d="M 116.5,316.5 C 119.5,316.5 122.5,316.5 125.5,316.5C 118.188,329.115 110.354,341.449 102,353.5C 99.5407,350.93 98.5407,347.93 99,344.5C 105.105,335.279 110.939,325.945 116.5,316.5 Z"/></g>
<g><path style="opacity:1" fill="#020202" d="M 171.5,344.5 C 156.5,345.833 141.5,345.833 126.5,344.5C 127.153,343.193 127.82,341.86 128.5,340.5C 141.821,339.334 155.154,339.167 168.5,340C 169.399,341.652 170.399,343.152 171.5,344.5 Z"/></g>
<g><path style="opacity:1" fill="#121212" d="M 73.5,339.5 C 74.4959,339.414 75.3292,339.748 76,340.5C 83.1667,352.167 90.3333,363.833 97.5,375.5C 94.5719,376.484 91.5719,376.817 88.5,376.5C 88.6495,375.448 88.4828,374.448 88,373.5C 81.9164,364.335 76.083,355.002 70.5,345.5C 71.5588,343.466 72.5588,341.466 73.5,339.5 Z"/></g>
<g><path style="opacity:1" fill="#6c6c6c" d="M 126.5,344.5 C 141.5,345.833 156.5,345.833 171.5,344.5C 172.043,344.56 172.376,344.893 172.5,345.5C 156.833,346.833 141.167,346.833 125.5,345.5C 125.624,344.893 125.957,344.56 126.5,344.5 Z"/></g>
<g><path style="opacity:1" fill="#080808" d="M 306.5,356.5 C 309.653,360.127 312.319,364.127 314.5,368.5C 311.959,371.193 308.792,372.859 305,373.5C 301.061,368.859 296.561,364.692 291.5,361C 287.04,359.008 282.373,357.841 277.5,357.5C 277.5,354.833 277.5,352.167 277.5,349.5C 277.5,348.5 277.5,347.5 277.5,346.5C 288.465,346.318 298.132,349.651 306.5,356.5 Z"/></g>
<g><path style="opacity:1" fill="#090909" d="M 305.5,415.5 C 308.582,413.925 311.249,411.758 313.5,409C 326.659,410.508 337.492,406.342 346,396.5C 353.966,376.932 347.8,364.098 327.5,358C 322.799,357.607 318.132,357.607 313.5,358C 311.63,355.96 309.63,354.127 307.5,352.5C 306.942,351.21 305.942,350.377 304.5,350C 326.221,342.053 344.054,347.219 358,365.5C 366.765,385.009 362.599,401.176 345.5,414C 333.046,421.108 320.046,422.275 306.5,417.5C 305.702,417.043 305.369,416.376 305.5,415.5 Z"/></g>
<g><path style="opacity:1" fill="#121212" d="M 67.5,349.5 C 73.6404,357.76 79.307,366.426 84.5,375.5C 81.8938,376.652 79.2272,376.818 76.5,376C 71.9177,369.504 67.5843,362.837 63.5,356C 65.0585,353.948 66.3918,351.781 67.5,349.5 Z"/></g>
<g><path style="opacity:1" fill="#0b0b0b" d="M 122.5,349.5 C 139.837,349.333 157.17,349.5 174.5,350C 176.209,351.916 177.543,354.082 178.5,356.5C 176.667,359.5 174.833,362.5 173,365.5C 171.291,362.582 169.458,359.748 167.5,357C 151.49,356.833 135.49,356.333 119.5,355.5C 120.559,353.466 121.559,351.466 122.5,349.5 Z"/></g>
<g><path style="opacity:1" fill="#0e0e0e" d="M 471.5,403.5 C 467.041,406.787 462.708,410.287 458.5,414C 446.335,419.747 435.501,417.914 426,408.5C 420.054,399.433 420.054,390.433 426,381.5C 433.004,375.329 439.837,368.995 446.5,362.5C 450.48,358.855 454.48,355.189 458.5,351.5C 460.679,352.757 462.679,354.257 464.5,356C 454.299,365.87 443.799,375.37 433,384.5C 425.751,398.569 429.917,407.236 445.5,410.5C 448.581,409.973 451.581,409.14 454.5,408C 458.648,404.686 462.648,401.186 466.5,397.5C 468.938,398.931 470.604,400.931 471.5,403.5 Z"/></g>
<g><path style="opacity:1" fill="#080808" d="M 256.5,364.5 C 246.181,378.812 247.515,391.979 260.5,404C 277.023,412.353 291.023,409.353 302.5,395C 306.721,394.422 310.888,393.589 315,392.5C 315.5,392.833 316,393.167 316.5,393.5C 313.99,400.528 309.99,406.528 304.5,411.5C 285.428,423.969 266.761,423.469 248.5,410C 234.547,394.967 233.047,378.8 244,361.5C 247.035,358.13 250.368,355.13 254,352.5C 254.328,356.646 255.161,360.646 256.5,364.5 Z"/></g>
<g><path style="opacity:1" fill="#f6f6f6" d="M 277.5,349.5 C 277.5,352.167 277.5,354.833 277.5,357.5C 282.373,357.841 287.04,359.008 291.5,361C 296.561,364.692 301.061,368.859 305,373.5C 308.792,372.859 311.959,371.193 314.5,368.5C 312.319,364.127 309.653,360.127 306.5,356.5C 308.842,356.225 308.842,355.392 306.5,354C 307.056,353.617 307.389,353.117 307.5,352.5C 309.63,354.127 311.63,355.96 313.5,358C 318.132,357.607 322.799,357.607 327.5,358C 347.8,364.098 353.966,376.932 346,396.5C 337.492,406.342 326.659,410.508 313.5,409C 311.249,411.758 308.582,413.925 305.5,415.5C 305.208,414.126 304.875,412.793 304.5,411.5C 309.99,406.528 313.99,400.528 316.5,393.5C 316,393.167 315.5,392.833 315,392.5C 310.888,393.589 306.721,394.422 302.5,395C 291.023,409.353 277.023,412.353 260.5,404C 247.515,391.979 246.181,378.812 256.5,364.5C 257.688,365.048 258.855,365.381 260,365.5C 260.464,364.906 260.631,364.239 260.5,363.5C 263.924,371.435 269.091,378.102 276,383.5C 276.181,378.868 277.014,374.368 278.5,370C 274.989,365.808 272.989,360.975 272.5,355.5C 273.1,358.625 274.267,358.958 276,356.5C 276.186,353.964 276.686,351.631 277.5,349.5 Z"/></g>
<g><path style="opacity:1" fill="#0e0e0e" d="M 161.5,407.5 C 157.629,407.815 153.962,407.482 150.5,406.5C 152.032,403.943 153.699,401.443 155.5,399C 147.697,386.366 139.697,373.866 131.5,361.5C 134.5,360.167 137.5,360.167 140.5,361.5C 148.417,374.337 156.584,387.003 165,399.5C 165.667,400.5 165.667,401.5 165,402.5C 163.331,403.846 162.164,405.513 161.5,407.5 Z"/></g>
<g><path style="opacity:1" fill="#0e0e0e" d="M 157.5,361.5 C 160.565,360.182 163.731,360.182 167,361.5C 170.833,367.833 174.667,374.167 178.5,380.5C 177.167,382.5 175.833,384.5 174.5,386.5C 169.071,377.965 163.404,369.631 157.5,361.5 Z"/></g>
<g><path style="opacity:1" fill="#090909" d="M 325.5,362.5 C 330.11,362.971 334.11,364.804 337.5,368C 329.291,382.271 316.957,389.605 300.5,390C 299.54,386.27 299.207,382.437 299.5,378.5C 311.793,378.702 320.46,373.369 325.5,362.5 Z"/></g>
<g><path style="opacity:1" fill="#0c0c0c" d="M 286.5,364.5 C 291.121,365.308 294.454,367.808 296.5,372C 293.833,379.333 293.833,386.667 296.5,394C 294.32,397.679 291.32,400.513 287.5,402.5C 281.875,393.989 280.042,384.656 282,374.5C 283.24,371.022 284.74,367.689 286.5,364.5 Z"/></g>
<g><path style="opacity:1" fill="#0e0e0e" d="M 144.5,361.5 C 150.126,359.35 154.293,361.017 157,366.5C 161.918,374 166.584,381.667 171,389.5C 170.665,392.255 169.665,394.922 168,397.5C 159.91,385.595 152.077,373.595 144.5,361.5 Z"/></g>
<g><path style="opacity:1" fill="#0d0d0d" d="M 473.5,399.5 C 468.161,393.494 462.494,387.827 456.5,382.5C 458.167,381.167 459.833,379.833 461.5,378.5C 472.587,387.415 483.254,396.915 493.5,407C 500.481,411.561 507.481,411.561 514.5,407C 520.848,401.053 522.014,394.219 518,386.5C 513.914,382.584 510.081,378.584 506.5,374.5C 508.716,373.797 510.549,372.464 512,370.5C 519.154,375.319 524.487,381.652 528,389.5C 529.735,402.867 524.235,411.7 511.5,416C 503.769,417.397 496.436,416.397 489.5,413C 484.294,408.289 478.961,403.789 473.5,399.5 Z"/></g>
<g><path style="opacity:1" fill="#030303" d="M 74.5,379.5 C 90.5,380.167 106.5,380.833 122.5,381.5C 121.883,383.229 120.883,384.729 119.5,386C 102.167,386.667 84.8333,386.667 67.5,386C 66.1667,384 64.8333,382 63.5,380C 64.9596,376.911 66.793,374.078 69,371.5C 71.054,374.047 72.8874,376.714 74.5,379.5 Z"/></g>
<g><path style="opacity:1" fill="#0e0e0e" d="M 132.5,372.5 C 134.433,373.642 135.933,375.308 137,377.5C 137.667,378.5 137.667,379.5 137,380.5C 128.833,393.333 120.667,406.167 112.5,419C 109.118,419.824 105.784,419.657 102.5,418.5C 101.167,416.167 99.8333,413.833 98.5,411.5C 102.377,410.803 106.21,410.136 110,409.5C 117.753,397.264 125.253,384.93 132.5,372.5 Z"/></g>
<g><path style="opacity:1" fill="#838383" d="M 74.5,379.5 C 90.8469,379.167 107.18,379.501 123.5,380.5C 123.376,381.107 123.043,381.44 122.5,381.5C 106.5,380.833 90.5,380.167 74.5,379.5 Z"/></g>
<g><path style="opacity:1" fill="#0d0d0d" d="M 139.5,383.5 C 142.046,385.281 143.546,387.614 144,390.5C 138,399.833 132,409.167 126,418.5C 123.205,419.783 120.372,419.783 117.5,418.5C 124.86,406.816 132.193,395.149 139.5,383.5 Z"/></g>
<g><path style="opacity:1" fill="#eaeaea" d="M 473.5,334.5 C 474.705,332.862 476.038,332.529 477.5,333.5C 478.85,335.683 480.684,337.35 483,338.5C 487.155,335.013 491.322,331.513 495.5,328C 498.039,326.953 500.705,326.453 503.5,326.5C 519.44,328.614 523.94,336.947 517,351.5C 506.024,360.643 495.524,370.309 485.5,380.5C 487.167,381.833 488.833,383.167 490.5,384.5C 495.519,380.476 500.519,376.476 505.5,372.5C 505.833,373.167 506.167,373.833 506.5,374.5C 510.081,378.584 513.914,382.584 518,386.5C 522.014,394.219 520.848,401.053 514.5,407C 507.481,411.561 500.481,411.561 493.5,407C 483.254,396.915 472.587,387.415 461.5,378.5C 459.833,379.833 458.167,381.167 456.5,382.5C 462.494,387.827 468.161,393.494 473.5,399.5C 473.843,401.483 473.176,402.817 471.5,403.5C 470.604,400.931 468.938,398.931 466.5,397.5C 462.648,401.186 458.648,404.686 454.5,408C 451.581,409.14 448.581,409.973 445.5,410.5C 429.917,407.236 425.751,398.569 433,384.5C 443.799,375.37 454.299,365.87 464.5,356C 462.679,354.257 460.679,352.757 458.5,351.5C 454.48,355.189 450.48,358.855 446.5,362.5C 445.001,361.506 443.334,361.506 441.5,362.5C 442.303,361.577 442.47,360.577 442,359.5C 438.368,356.87 435.035,353.87 432,350.5C 427.787,342.387 428.954,335.221 435.5,329C 442.167,325.667 448.833,325.667 455.5,329C 466.428,338.717 477.261,348.55 488,358.5C 489.78,356.707 491.613,355.04 493.5,353.5C 486.376,347.613 479.709,341.279 473.5,334.5 Z"/></g>
<g><path style="opacity:1" fill="#0d0d0d" d="M 468.5,371.5 C 469.552,371.351 470.552,371.517 471.5,372C 481.167,381 490.833,390 500.5,399C 506.589,400.73 509.422,398.563 509,392.5C 505.812,389.312 502.645,386.145 499.5,383C 500.506,379.969 502.506,378.635 505.5,379C 509.426,382.586 512.926,386.419 516,390.5C 518.166,397.999 515.666,403.166 508.5,406C 504.375,406.854 500.375,406.52 496.5,405C 485.716,395.851 475.216,386.351 465,376.5C 465.112,374.203 466.278,372.536 468.5,371.5 Z"/></g>
<g><path style="opacity:1" fill="#0e0e0e" d="M 466.5,358.5 C 469.073,359.879 470.573,361.879 471,364.5C 461,373.833 451,383.167 441,392.5C 440.694,399.537 443.861,401.371 450.5,398C 453.016,395.317 455.683,392.817 458.5,390.5C 460.924,391.423 462.924,392.923 464.5,395C 460.12,399.048 455.454,402.715 450.5,406C 435.363,407.877 430.196,401.71 435,387.5C 445.396,377.599 455.896,367.932 466.5,358.5 Z"/></g>
<g><path style="opacity:1" fill="#0f0f0f" d="M 499.5,329.5 C 512.396,328.227 517.896,333.893 516,346.5C 505.637,357.696 494.47,368.03 482.5,377.5C 480.684,376.185 479.017,374.685 477.5,373C 488,363.167 498.5,353.333 509,343.5C 508.994,336.738 505.828,334.904 499.5,338C 496.651,341.016 493.651,343.85 490.5,346.5C 489.472,344.639 487.972,343.305 486,342.5C 485.837,340.613 486.671,339.113 488.5,338C 492.067,334.92 495.733,332.087 499.5,329.5 Z"/></g>
<g><path style="opacity:1" fill="#101010" d="M 440.5,329.5 C 446.026,328.711 451.026,329.878 455.5,333C 465.5,342.333 475.5,351.667 485.5,361C 483.92,363.295 481.92,364.628 479.5,365C 470.833,357 462.167,349 453.5,341C 451.194,338.861 448.527,337.361 445.5,336.5C 440.85,337.266 439.35,339.932 441,344.5C 444.495,347.162 447.662,350.162 450.5,353.5C 449.101,356.099 447.101,357.599 444.5,358C 441.333,354.833 438.167,351.667 435,348.5C 430.478,340.312 432.311,333.979 440.5,329.5 Z"/></g>
<g><path style="opacity:1" fill="#050505" d="M 70.5,391.5 C 85.6611,390.339 100.994,390.172 116.5,391C 115.167,393 113.833,395 112.5,397C 99.8333,397.667 87.1667,397.667 74.5,397C 73.3034,394.985 71.9701,393.151 70.5,391.5 Z"/></g>
<g><path style="opacity:1" fill="#0e0e0e" d="M 145.5,393.5 C 149.797,395.757 150.964,399.091 149,403.5C 145.376,408.58 141.876,413.747 138.5,419C 135.773,419.818 133.106,419.652 130.5,418.5C 135.952,410.394 140.952,402.061 145.5,393.5 Z"/></g>
<g><path style="opacity:1" fill="#6a6a6a" d="M 109.5,402.5 C 98.8333,401.167 88.1667,401.167 77.5,402.5C 76.9569,402.44 76.6236,402.107 76.5,401.5C 87.8333,400.167 99.1667,400.167 110.5,401.5C 110.376,402.107 110.043,402.44 109.5,402.5 Z"/></g>
<g><path style="opacity:1" fill="#040404" d="M 109.5,402.5 C 108.386,403.885 107.386,405.385 106.5,407C 97.8142,407.832 89.1475,407.665 80.5,406.5C 79.4756,405.148 78.4756,403.815 77.5,402.5C 88.1667,401.167 98.8333,401.167 109.5,402.5 Z"/></g>
<g><path style="opacity:1" fill="#656565" d="M 150.5,406.5 C 153.962,407.482 157.629,407.815 161.5,407.5C 157.649,408.809 153.649,408.809 149.5,407.5C 149.624,406.893 149.957,406.56 150.5,406.5 Z"/></g>
<g><path style="opacity:1" fill="#080808" d="M 446.5,459.5 C 455.89,463.943 465.39,468.276 475,472.5C 483.833,468.271 492.667,463.938 501.5,459.5C 512.287,464.727 522.954,470.227 533.5,476C 534.821,488.104 534.821,500.271 533.5,512.5C 522.833,518.167 512.167,523.833 501.5,529.5C 492.73,524.699 483.897,520.032 475,515.5C 465.771,519.729 456.771,524.396 448,529.5C 436.757,523.918 425.757,517.918 415,511.5C 414.333,499.833 414.333,488.167 415,476.5C 425.482,470.678 435.982,465.011 446.5,459.5 Z"/></g>
<g><path style="opacity:1" fill="#4a4a4a" d="M 232.5,469.5 C 235.518,469.335 238.518,469.502 241.5,470C 239.19,470.497 236.857,470.663 234.5,470.5C 234.5,472.167 234.5,473.833 234.5,475.5C 242.5,476.167 242.5,476.833 234.5,477.5C 234.5,479.167 234.5,480.833 234.5,482.5C 236.857,482.337 239.19,482.503 241.5,483C 238.518,483.498 235.518,483.665 232.5,483.5C 232.5,478.833 232.5,474.167 232.5,469.5 Z"/></g>
<g><path style="opacity:1" fill="#4b4b4b" d="M 251.5,470.5 C 253.423,474.029 254.089,478.029 253.5,482.5C 255.857,482.337 258.19,482.503 260.5,483C 257.518,483.498 254.518,483.665 251.5,483.5C 251.5,479.167 251.5,474.833 251.5,470.5 Z"/></g>
<g><path style="opacity:1" fill="#f6f6f6" d="M 445.5,473.5 C 447.199,473.34 448.866,473.506 450.5,474C 454.007,476.254 457.673,478.254 461.5,480C 455.082,483.959 448.582,487.793 442,491.5C 441.206,498.122 444.039,500.955 450.5,500C 467.359,490.993 484.359,482.16 501.5,473.5C 507.949,476.224 514.283,479.224 520.5,482.5C 521.833,490.167 521.833,497.833 520.5,505.5C 514.325,509.088 507.991,512.422 501.5,515.5C 497.377,513.685 493.377,511.685 489.5,509.5C 488.167,508.833 488.167,508.167 489.5,507.5C 495.74,504.799 501.574,501.466 507,497.5C 508.623,492.304 506.79,489.304 501.5,488.5C 483.782,496.526 466.449,505.359 449.5,515C 442.107,512.975 435.107,509.809 428.5,505.5C 427.335,498.189 427.169,490.856 428,483.5C 433.815,480.013 439.648,476.68 445.5,473.5 Z"/></g>
<g><path style="opacity:1" fill="#373737" d="M 315.5,469.5 C 318.518,469.335 321.518,469.502 324.5,470C 322.167,470.333 319.833,470.667 317.5,471C 316.62,472.356 316.286,473.856 316.5,475.5C 325.833,476.167 325.833,476.833 316.5,477.5C 316.5,479.167 316.5,480.833 316.5,482.5C 319.187,482.336 321.854,482.503 324.5,483C 321.518,483.498 318.518,483.665 315.5,483.5C 315.5,478.833 315.5,474.167 315.5,469.5 Z"/></g>
<g><path style="opacity:1" fill="#414141" d="M 334.5,469.5 C 338.104,472.65 341.27,476.316 344,480.5C 344.333,477.167 344.667,473.833 345,470.5C 345.667,474.833 345.667,479.167 345,483.5C 342.333,480.167 339.667,476.833 337,473.5C 336.824,476.882 336.324,480.215 335.5,483.5C 334.507,478.88 334.173,474.214 334.5,469.5 Z"/></g>
<g><path style="opacity:1" fill="#212121" d="M 366.5,469.5 C 365.081,470.451 363.415,470.784 361.5,470.5C 361.5,474.833 361.5,479.167 361.5,483.5C 360.515,479.366 360.182,475.032 360.5,470.5C 358.801,470.66 357.134,470.494 355.5,470C 359.152,469.501 362.818,469.335 366.5,469.5 Z"/></g>
<g><path style="opacity:1" fill="#acacac" d="M 366.5,469.5 C 367.043,469.56 367.376,469.893 367.5,470.5C 365.955,471.452 364.288,471.785 362.5,471.5C 362.817,475.702 362.483,479.702 361.5,483.5C 361.5,479.167 361.5,474.833 361.5,470.5C 363.415,470.784 365.081,470.451 366.5,469.5 Z"/></g>
<g><path style="opacity:1" fill="#4d4d4d" d="M 270.5,469.5 C 273.518,469.335 276.518,469.502 279.5,470C 277.19,470.497 274.857,470.663 272.5,470.5C 272.5,472.167 272.5,473.833 272.5,475.5C 280.5,476.167 280.5,476.833 272.5,477.5C 272.5,479.167 272.5,480.833 272.5,482.5C 274.857,482.337 277.19,482.503 279.5,483C 276.518,483.498 273.518,483.665 270.5,483.5C 270.5,478.833 270.5,474.167 270.5,469.5 Z"/></g>
<g><path style="opacity:1" fill="#262626" d="M 302.5,470.5 C 303.8,472.223 304.467,474.39 304.5,477C 304.333,479.167 304.167,481.333 304,483.5C 303.667,479.833 303.333,476.167 303,472.5C 302.333,473.833 301.667,475.167 301,476.5C 300.591,474.305 301.091,472.305 302.5,470.5 Z"/></g>
<g><path style="opacity:1" fill="#575757" d="M 295.5,479.5 C 294.108,477.727 292.941,475.727 292,473.5C 291.824,476.882 291.324,480.215 290.5,483.5C 289.167,478.833 289.167,474.167 290.5,469.5C 293.22,472.274 294.887,475.607 295.5,479.5 Z"/></g>
<g><path style="opacity:1" fill="#434343" d="M 295.5,479.5 C 297.129,481.06 298.296,480.727 299,478.5C 299.624,480.464 299.124,482.131 297.5,483.5C 295.889,482.68 295.222,481.346 295.5,479.5 Z"/></g>
<g><path style="opacity:1" fill="#070707" d="M 232.5,488.5 C 277.167,488.5 321.833,488.5 366.5,488.5C 366.5,498.5 366.5,508.5 366.5,518.5C 321.833,518.5 277.167,518.5 232.5,518.5C 232.5,508.5 232.5,498.5 232.5,488.5 Z"/></g>
<g><path style="opacity:1" fill="#111111" d="M 82.5,460.5 C 92.8101,459.17 102.477,461.003 111.5,466C 114.692,468.692 118.025,471.192 121.5,473.5C 138.072,458.278 156.072,456.445 175.5,468C 192.118,484.333 192.785,501.333 177.5,519C 157.432,532.842 138.599,531.342 121,514.5C 104.81,530.335 86.9766,532.502 67.5,521C 49.7875,504.208 49.1208,486.874 65.5,469C 70.719,465.105 76.3857,462.271 82.5,460.5 Z"/></g>
<g><path style="opacity:1" fill="#e9e9e9" d="M 145.5,464.5 C 162.175,463.205 174.341,469.872 182,484.5C 185.95,505.554 177.45,518.387 156.5,523C 146.298,525.152 137.298,522.819 129.5,516C 118.466,505.298 107.133,494.964 95.5,485C 85.6866,482.832 80.52,486.665 80,496.5C 83.4382,503.8 88.9382,505.967 96.5,503C 98.96,501.542 101.127,499.709 103,497.5C 103.833,498.333 104.667,499.167 105.5,500C 96.7722,509.37 87.6056,509.87 78,501.5C 74.059,486.436 79.8923,479.603 95.5,481C 108.095,490.924 120.095,501.591 131.5,513C 142.798,521.754 154.798,522.754 167.5,516C 179.375,507.369 182.541,496.202 177,482.5C 169.185,471 158.352,466.5 144.5,469C 140.951,469.774 137.618,471.107 134.5,473C 132.295,475.54 129.795,477.707 127,479.5C 125.422,478.289 125.255,476.955 126.5,475.5C 131.86,469.992 138.193,466.325 145.5,464.5 Z"/></g>
<g><path style="opacity:1" fill="#e8e8e8" d="M 85.5,472.5 C 91.853,471.901 97.853,473.068 103.5,476C 115.466,486.298 127.133,496.965 138.5,508C 149.222,514.764 159.055,513.598 168,504.5C 173.834,494.339 172.001,485.839 162.5,479C 151.552,474.423 141.885,476.257 133.5,484.5C 132.5,484 131.5,483.5 130.5,483C 142.952,470.07 156.119,469.237 170,480.5C 174.755,487.602 175.755,495.269 173,503.5C 166.086,513.535 156.586,517.368 144.5,515C 141.554,514.194 138.888,512.861 136.5,511C 125.5,500.667 114.5,490.333 103.5,480C 95.6275,475.859 87.6275,475.525 79.5,479C 70.6594,486.569 69.1594,495.402 75,505.5C 82.385,512.905 90.885,514.405 100.5,510C 103.36,507.64 106.36,505.473 109.5,503.5C 110.5,503.833 111.167,504.5 111.5,505.5C 100.981,516.531 88.9809,518.365 75.5,511C 64.535,499.298 64.8684,487.964 76.5,477C 79.5919,475.454 82.5919,473.954 85.5,472.5 Z"/></g>
<g><path style="opacity:1" fill="#eaeaea" d="M 243.5,494.5 C 248.449,493.959 253.116,494.792 257.5,497C 260.749,502.95 259.749,507.95 254.5,512C 250.848,512.499 247.182,512.665 243.5,512.5C 243.5,506.5 243.5,500.5 243.5,494.5 Z"/></g>
<g><path style="opacity:1" fill="#f6f6f6" d="M 265.5,494.5 C 269.833,494.5 274.167,494.5 278.5,494.5C 278.5,495.5 278.5,496.5 278.5,497.5C 275.167,497.5 271.833,497.5 268.5,497.5C 268.232,499.099 268.566,500.432 269.5,501.5C 272.5,501.5 275.5,501.5 278.5,501.5C 278.5,502.5 278.5,503.5 278.5,504.5C 275.5,504.5 272.5,504.5 269.5,504.5C 268.549,505.919 268.216,507.585 268.5,509.5C 272.167,509.5 275.833,509.5 279.5,509.5C 279.5,510.167 279.5,510.833 279.5,511.5C 274.833,511.5 270.167,511.5 265.5,511.5C 265.5,505.833 265.5,500.167 265.5,494.5 Z"/></g>
<g><path style="opacity:1" fill="#ededed" d="M 304.5,494.5 C 305.833,494.5 307.167,494.5 308.5,494.5C 308.5,500.5 308.5,506.5 308.5,512.5C 307.167,512.5 305.833,512.5 304.5,512.5C 304.5,506.5 304.5,500.5 304.5,494.5 Z"/></g>
<g><path style="opacity:1" fill="#ededed" d="M 340.5,494.5 C 341.873,494.343 343.207,494.51 344.5,495C 346.543,498.253 348.71,501.42 351,504.5C 351.498,501.183 351.665,497.85 351.5,494.5C 352.833,494.5 354.167,494.5 355.5,494.5C 355.5,500.5 355.5,506.5 355.5,512.5C 354.022,512.762 352.689,512.429 351.5,511.5C 349.192,508.025 346.692,504.692 344,501.5C 343.502,504.817 343.335,508.15 343.5,511.5C 342.5,511.5 341.5,511.5 340.5,511.5C 340.5,505.833 340.5,500.167 340.5,494.5 Z"/></g>
<g><path style="opacity:1" fill="#141414" d="M 247.5,497.5 C 254.56,496.725 257.06,499.725 255,506.5C 253.152,509.041 250.652,510.041 247.5,509.5C 247.5,505.5 247.5,501.5 247.5,497.5 Z"/></g>
<g><path style="opacity:1" fill="#616161" d="M 278.5,494.5 C 279.434,495.568 279.768,496.901 279.5,498.5C 276.167,498.5 272.833,498.5 269.5,498.5C 269.5,499.5 269.5,500.5 269.5,501.5C 268.566,500.432 268.232,499.099 268.5,497.5C 271.833,497.5 275.167,497.5 278.5,497.5C 278.5,496.5 278.5,495.5 278.5,494.5 Z"/></g>
<g><path style="opacity:1" fill="#e6e6e6" d="M 287.5,494.5 C 291.257,494.071 294.757,494.737 298,496.5C 298.483,497.448 298.649,498.448 298.5,499.5C 295.413,497.983 292.079,497.316 288.5,497.5C 288.33,498.822 288.663,499.989 289.5,501C 293.039,501.187 296.205,502.354 299,504.5C 300.271,508.166 299.104,510.666 295.5,512C 292.833,512.667 290.167,512.667 287.5,512C 284.13,510.535 283.463,508.702 285.5,506.5C 287.323,507.754 289.323,508.754 291.5,509.5C 293.319,509.658 294.652,508.991 295.5,507.5C 292.256,505.466 288.756,503.799 285,502.5C 283.837,499.029 284.67,496.362 287.5,494.5 Z"/></g>
<g><path style="opacity:1" fill="#eaeaea" d="M 331.5,502.5 C 331.5,505.5 331.5,508.5 331.5,511.5C 330.5,511.5 329.5,511.5 328.5,511.5C 317.445,514.281 312.945,509.948 315,498.5C 319.984,493.541 325.318,493.207 331,497.5C 331.483,498.448 331.649,499.448 331.5,500.5C 328.68,499.804 326.013,498.804 323.5,497.5C 321.626,497.39 320.126,498.056 319,499.5C 316.975,506.7 319.475,509.867 326.5,509C 327.337,507.989 327.67,506.822 327.5,505.5C 326.167,505.5 324.833,505.5 323.5,505.5C 323.5,504.5 323.5,503.5 323.5,502.5C 326.167,502.5 328.833,502.5 331.5,502.5 Z"/></g>
<g><path style="opacity:1" fill="#7a7a7a" d="M 340.5,494.5 C 340.5,500.167 340.5,505.833 340.5,511.5C 341.5,511.5 342.5,511.5 343.5,511.5C 342.432,512.434 341.099,512.768 339.5,512.5C 339.177,506.31 339.51,500.31 340.5,494.5 Z"/></g>
<g><path style="opacity:1" fill="#8c8c8c" d="M 265.5,494.5 C 265.5,500.167 265.5,505.833 265.5,511.5C 270.167,511.5 274.833,511.5 279.5,511.5C 274.695,512.487 269.695,512.821 264.5,512.5C 264.177,506.31 264.51,500.31 265.5,494.5 Z"/></g>
<g><path style="opacity:1" fill="#606060" d="M 269.5,504.5 C 269.5,505.833 269.5,507.167 269.5,508.5C 273.042,508.187 276.375,508.521 279.5,509.5C 275.833,509.5 272.167,509.5 268.5,509.5C 268.216,507.585 268.549,505.919 269.5,504.5 Z"/></g>
<g><path style="opacity:1" fill="#e7e7e7" d="M 85.5,464.5 C 93.9598,464.224 101.96,466.057 109.5,470C 122.167,481.333 134.833,492.667 147.5,504C 157.867,505.297 162.701,500.797 162,490.5C 158.364,484.823 153.197,482.99 146.5,485C 144.023,486.643 141.69,488.476 139.5,490.5C 138.5,490.167 137.833,489.5 137.5,488.5C 145.616,478.617 154.45,477.951 164,486.5C 168.219,494.29 166.719,500.79 159.5,506C 154.924,507.476 150.257,507.81 145.5,507C 132.751,495.647 120.085,484.314 107.5,473C 87.7217,463.26 72.8884,468.093 63,487.5C 60.7631,500.469 65.2631,510.302 76.5,517C 91.3733,523.488 104.207,520.655 115,508.5C 115.833,509.333 116.667,510.167 117.5,511C 106.134,523.343 92.4674,526.677 76.5,521C 58.5348,510.44 54.3681,495.94 64,477.5C 69.6448,470.437 76.8114,466.103 85.5,464.5 Z"/></g>
<g><path style="opacity:1" fill="#ededed" d="M 148.5,488.5 C 155.805,487.961 158.471,491.128 156.5,498C 151.587,500.587 147.42,499.753 144,495.5C 143.333,494.833 143.333,494.167 144,493.5C 145.707,491.963 147.207,490.296 148.5,488.5 Z"/></g>
<g><path style="opacity:1" fill="#ededed" d="M 87.5,488.5 C 92.6108,487.888 96.6108,489.722 99.5,494C 97.8333,495.667 96.1667,497.333 94.5,499C 84.9177,499.949 82.5844,496.449 87.5,488.5 Z"/></g>
<g><path style="opacity:1" fill="#585858" d="M 331.5,502.5 C 332.479,505.625 332.813,508.958 332.5,512.5C 330.901,512.768 329.568,512.434 328.5,511.5C 329.5,511.5 330.5,511.5 331.5,511.5C 331.5,508.5 331.5,505.5 331.5,502.5 Z"/></g>
</svg>
