<?xml version="1.0" standalone="no"?>
<!DOCTYPE svg PUBLIC "-//W3C//DTD SVG 20010904//EN"
 "http://www.w3.org/TR/2001/REC-SVG-20010904/DTD/svg10.dtd">
<svg version="1.0" xmlns="http://www.w3.org/2000/svg"
 width="589.000000pt" height="560.000000pt" viewBox="0 0 589.000000 560.000000"
 preserveAspectRatio="xMidYMid meet">

<g transform="translate(0.000000,560.000000) scale(0.100000,-0.100000)"
fill="#000000" stroke="none">
<path d="M4664 5191 c-153 -25 -303 -117 -388 -240 -40 -57 -73 -156 -82 -239
l-7 -72 50 0 50 0 6 72 c16 188 172 351 371 387 33 6 136 11 230 11 192 1 196
5 42 55 -87 28 -194 38 -272 26z"/>
<path d="M927 5164 c-74 -14 -188 -61 -202 -84 -5 -8 9 -9 42 -5 167 20 315
25 690 25 l421 0 21 36 c12 19 21 37 21 40 0 2 -206 4 -457 3 -348 -1 -477 -5
-536 -15z"/>
<path d="M2678 5022 l-96 -157 213 -3 213 -2 82 -131 c46 -71 86 -132 91 -134
4 -3 53 68 109 156 l101 162 -44 71 c-24 39 -61 99 -83 134 l-39 62 -225 -1
-225 0 -97 -157z"/>
<path d="M1035 5055 c-5 -3 -97 -16 -203 -30 -107 -13 -198 -28 -204 -31 -15
-9 -80 -114 -76 -123 2 -5 113 16 248 45 l245 54 382 0 381 0 21 34 c12 18 21
38 21 45 0 8 -109 11 -402 10 -222 0 -407 -2 -413 -4z"/>
<path d="M4616 5029 c-152 -52 -253 -175 -264 -320 l-5 -67 52 -3 51 -4 0 55
c1 100 57 186 155 238 l50 27 278 3 c213 2 277 6 277 16 0 6 -15 26 -33 44
l-33 32 -234 0 c-210 -1 -241 -3 -294 -21z"/>
<path d="M780 4846 l-265 -82 -3 -77 c-2 -45 1 -77 7 -77 10 0 173 70 390 169
l134 61 349 0 348 0 20 33 c11 17 20 38 20 45 0 9 -80 12 -367 11 l-368 -1
-265 -82z"/>
<path d="M4642 4878 c-75 -36 -132 -123 -132 -201 0 -32 12 -40 64 -40 41 0
41 0 38 36 -4 45 20 93 61 117 30 19 52 20 325 20 194 0 292 3 292 10 0 6 -7
26 -14 45 l-15 35 -288 0 c-270 -1 -291 -2 -331 -22z"/>
<path d="M3320 4675 l-103 -165 -174 0 c-96 0 -173 -4 -171 -8 2 -4 46 -76 98
-160 l95 -152 186 0 187 0 101 161 c56 88 98 166 95 172 -41 72 -198 317 -203
317 -4 0 -54 -74 -111 -165z"/>
<path d="M806 4660 c-131 -77 -243 -143 -249 -149 -14 -14 5 -56 46 -104 l32
-38 212 176 211 175 311 0 311 0 20 40 20 40 -337 -1 -338 -1 -239 -138z"/>
<path d="M2499 4733 c-24 -38 -64 -102 -90 -144 l-47 -76 101 -161 102 -162
207 0 c115 0 208 2 208 6 0 3 -45 77 -100 164 l-100 160 85 134 c47 73 85 136
85 140 0 3 -92 6 -204 6 l-204 0 -43 -67z"/>
<path d="M4895 4698 c8 -43 -21 -97 -66 -123 -31 -18 -57 -20 -326 -25 l-292
-5 19 -42 19 -43 255 0 c147 0 277 5 306 11 102 22 180 113 180 211 l0 48 -50
0 -51 0 6 -32z"/>
<path d="M5058 4691 c10 -98 -57 -200 -166 -253 l-66 -33 -268 -5 -267 -5 35
-42 36 -43 202 0 c111 0 229 5 262 11 182 33 315 170 331 343 l6 66 -54 0 -55
0 4 -39z"/>
<path d="M5213 4710 c9 -35 -10 -137 -36 -194 -45 -97 -140 -181 -259 -229
-46 -18 -81 -22 -263 -27 l-210 -5 60 -29 c224 -105 501 -54 668 123 94 100
136 201 137 324 l0 57 -51 0 c-47 0 -51 -2 -46 -20z"/>
<path d="M888 4493 c-89 -98 -166 -179 -170 -181 -18 -8 -5 -22 45 -51 101
-58 89 -66 195 144 55 108 100 185 108 185 8 0 14 -4 14 -9 0 -5 -25 -93 -56
-196 -30 -103 -52 -190 -49 -193 9 -9 152 -8 161 1 4 4 17 94 28 200 17 159
24 192 37 195 20 4 26 -30 35 -215 4 -72 10 -137 14 -144 6 -9 21 -6 62 14 96
49 92 35 53 185 -41 154 -42 162 -14 162 16 0 31 -23 73 -112 l53 -112 36 49
c50 69 53 90 22 130 -14 19 -25 36 -25 39 0 3 22 6 49 6 46 0 51 3 70 36 12
19 21 37 21 40 0 2 -135 4 -299 4 l-299 0 -164 -177z"/>
<path d="M4455 3792 c-15 -2 -65 -74 -173 -245 -83 -134 -152 -247 -152 -252
0 -16 196 -320 205 -319 5 1 27 31 49 67 23 37 105 169 184 294 79 125 144
232 144 237 1 5 -27 55 -62 111 l-65 103 -55 4 c-30 2 -64 2 -75 0z"/>
<path d="M4662 3788 c2 -4 84 -135 183 -292 l180 -286 151 0 151 0 27 40 c14
22 26 42 26 44 0 7 -291 469 -304 483 -12 13 -418 24 -414 11z"/>
<path d="M938 3507 c-98 -155 -212 -335 -253 -399 -41 -65 -72 -118 -70 -118
4 0 660 434 673 446 2 1 -4 70 -14 153 l-17 150 -64 26 c-35 14 -67 25 -71 25
-4 0 -87 -128 -184 -283z"/>
<path d="M2735 3754 c-119 -25 -199 -63 -272 -128 -101 -91 -153 -206 -153
-337 0 -180 95 -330 266 -419 31 -17 63 -30 73 -30 9 0 -3 10 -27 21 -75 38
-148 113 -189 197 -38 75 -38 77 -38 196 0 115 2 124 32 189 40 84 116 165
192 206 78 41 83 39 22 -9 -91 -72 -154 -179 -174 -296 -32 -185 79 -385 263
-478 40 -20 80 -36 88 -36 8 0 -12 14 -46 31 -136 67 -232 229 -232 389 0 177
115 350 275 414 38 15 39 14 15 -1 -51 -34 -130 -126 -160 -186 -86 -175 -52
-372 88 -514 31 -32 85 -73 119 -90 76 -41 107 -43 37 -4 -28 17 -72 53 -97
81 -163 181 -151 462 25 625 59 55 148 105 186 105 9 0 41 -14 71 -30 54 -30
55 -30 31 -5 -31 33 -128 80 -205 100 -55 14 -144 18 -190 9z"/>
<path d="M3070 3731 c30 -16 78 -53 106 -83 94 -99 130 -203 121 -344 -9 -156
-100 -294 -238 -363 -34 -17 -70 -31 -79 -31 -10 0 -42 13 -73 28 -68 34 -64
23 8 -23 149 -96 339 -107 502 -30 194 91 309 298 274 490 -25 135 -123 272
-239 333 -77 40 -120 51 -57 14 114 -67 194 -184 216 -316 31 -185 -64 -376
-231 -465 -72 -39 -85 -39 -34 -3 84 61 150 155 178 251 34 115 11 265 -54
364 -43 63 -129 140 -193 170 -76 37 -112 43 -47 8 92 -49 168 -135 206 -236
14 -38 19 -76 19 -160 0 -103 -2 -114 -32 -178 -38 -79 -117 -168 -188 -208
-73 -42 -76 -36 -13 21 160 142 202 346 111 539 -36 77 -139 177 -225 219 -83
39 -114 42 -38 3z"/>
<path d="M1320 3719 c-1 -56 85 -736 94 -745 6 -6 75 -37 152 -68 l142 -57 56
37 c31 21 56 42 56 48 0 5 -19 39 -42 75 -23 36 -134 212 -246 391 -112 179
-206 327 -208 329 -2 2 -4 -2 -4 -10z"/>
<path d="M4448 3025 l-77 -124 32 -50 32 -51 319 3 319 2 99 155 c54 85 103
163 109 173 9 16 -11 17 -373 17 l-383 -1 -77 -124z"/>
<path d="M780 3028 c-63 -43 -120 -82 -127 -86 -7 -5 -9 -29 -6 -74 l6 -68
511 0 c502 1 510 1 466 19 -25 10 -197 79 -382 154 -186 76 -341 137 -345 136
-5 -1 -60 -37 -123 -81z"/>
<path d="M2930 2429 c-124 -21 -244 -108 -297 -217 -24 -50 -28 -69 -28 -147
0 -77 4 -98 27 -147 33 -71 131 -174 135 -143 2 11 8 43 14 72 10 49 8 54 -18
94 -25 38 -28 52 -28 123 0 71 4 86 27 123 29 43 69 78 128 109 25 13 57 18
115 18 67 0 88 -4 131 -26 28 -15 66 -44 84 -65 28 -32 45 -41 104 -55 39 -9
72 -15 74 -13 6 6 -29 80 -55 118 -36 51 -135 121 -199 140 -72 21 -149 27
-214 16z"/>
<path d="M981 2330 l-63 -99 18 -31 c10 -16 21 -30 25 -30 4 0 21 22 37 48 16
26 52 85 81 130 l51 82 -43 0 -44 0 -62 -100z"/>
<path d="M1085 2288 c-49 -78 -91 -148 -93 -155 -2 -8 5 -27 16 -44 l19 -31
110 173 c60 96 113 180 117 187 5 9 -4 12 -36 12 l-43 0 -90 -142z"/>
<path d="M1177 2226 l-127 -204 17 -31 c10 -17 21 -31 25 -31 3 0 60 85 125
189 l118 190 57 3 57 3 -27 42 c-25 39 -30 42 -72 42 l-45 0 -128 -203z"/>
<path d="M4366 2385 c-80 -28 -145 -119 -146 -203 0 -74 27 -123 113 -202 l48
-44 27 27 27 27 -53 46 c-63 55 -82 89 -82 146 0 83 71 147 163 148 62 0 95
-21 243 -156 77 -71 150 -137 161 -147 19 -16 21 -16 47 7 l28 23 -156 144
c-184 170 -232 199 -320 199 -33 -1 -78 -7 -100 -15z"/>
<path d="M4941 2380 c-24 -11 -70 -43 -103 -71 l-59 -52 22 -23 c13 -13 28
-24 34 -24 6 0 29 19 50 41 48 50 106 78 159 79 120 0 201 -119 148 -217 -9
-17 -80 -88 -157 -158 -77 -70 -149 -136 -159 -146 -19 -18 -19 -18 5 -38 13
-11 29 -20 36 -18 26 5 331 297 349 334 37 78 16 192 -48 249 -70 65 -189 84
-277 44z"/>
<path d="M797 2281 c-9 -16 -17 -34 -17 -41 0 -6 19 -41 43 -78 24 -37 81
-127 127 -200 l84 -133 38 3 c21 1 38 5 38 8 0 4 -52 89 -115 189 -63 100
-115 188 -115 194 0 7 11 29 25 50 l26 37 -58 0 c-54 0 -60 -2 -76 -29z"/>
<path d="M1349 2283 c-7 -16 -15 -31 -17 -35 -2 -5 71 -8 162 -8 l165 0 -20
35 -21 35 -127 0 -128 0 -14 -27z"/>
<path d="M4405 2290 c-44 -18 -70 -59 -70 -111 0 -47 3 -52 62 -111 l63 -63
27 28 28 28 -53 47 c-55 49 -65 78 -36 106 35 36 45 30 247 -156 70 -65 131
-118 136 -118 4 0 18 11 30 24 l22 24 -161 146 c-88 81 -172 151 -186 156 -30
12 -81 12 -109 0z"/>
<path d="M4975 2281 c-16 -11 -50 -38 -75 -60 l-45 -40 30 -25 30 -24 53 49
c31 28 63 49 76 49 26 0 56 -28 56 -53 0 -9 -72 -82 -160 -163 l-160 -148 22
-23 c21 -23 43 -30 50 -15 2 4 71 69 155 145 168 152 183 176 161 242 -17 50
-55 77 -115 82 -36 3 -55 -1 -78 -16z"/>
<path d="M727 2170 c-10 -17 -15 -36 -11 -43 4 -6 47 -76 96 -154 l90 -143 40
0 c31 0 39 3 35 15 -4 8 -48 81 -100 162 -52 81 -99 158 -106 171 -16 29 -23
28 -44 -8z"/>
<path d="M1279 2173 c-7 -16 -15 -31 -17 -35 -2 -5 100 -8 227 -8 153 0 231 4
231 10 0 6 -7 22 -16 35 l-16 25 -198 0 -197 0 -14 -27z"/>
<path d="M2786 2127 c-26 -82 -17 -101 52 -117 31 -6 71 -21 89 -31 35 -22
103 -93 103 -109 0 -15 34 -12 80 6 22 9 40 23 40 31 0 28 -63 105 -120 147
-72 53 -236 102 -244 73z"/>
<path d="M3154 2129 c-28 -5 -63 -13 -78 -18 l-26 -11 46 -42 c46 -43 47 -43
123 -44 164 -1 281 -105 281 -249 0 -71 -20 -119 -73 -173 -54 -55 -130 -84
-213 -81 -61 2 -63 1 -114 -43 l-51 -45 59 -17 c153 -42 333 7 432 120 16 19
42 58 57 87 25 46 28 63 28 147 0 83 -3 102 -27 150 -49 99 -149 182 -253 208
-64 16 -136 20 -191 11z"/>
<path d="M664 2073 c-9 -15 -17 -32 -17 -38 0 -15 102 -178 121 -192 18 -15
82 -18 82 -4 0 4 -8 19 -18 32 -10 13 -46 70 -81 127 -35 56 -64 102 -66 102
-1 0 -11 -12 -21 -27z"/>
<path d="M1212 2065 l-22 -35 245 0 245 0 29 -46 29 -47 27 47 27 46 -19 32
-19 33 -260 3 -259 2 -23 -35z"/>
<path d="M4423 1930 c-188 -175 -209 -206 -200 -302 11 -119 106 -201 236
-201 40 0 81 6 105 16 44 19 156 113 156 130 0 7 -12 20 -26 30 l-25 18 -58
-54 c-66 -60 -122 -81 -181 -68 -46 10 -70 23 -99 55 -34 36 -41 123 -15 164
17 25 176 176 297 281 l40 35 -27 23 c-15 13 -30 23 -34 23 -4 -1 -80 -68
-169 -150z"/>
<path d="M2492 2025 c-204 -183 -138 -496 128 -606 45 -19 74 -23 160 -23 98
-1 110 1 172 31 37 17 90 52 117 78 46 43 112 147 100 159 -3 3 -35 0 -72 -7
-59 -11 -71 -17 -99 -51 -94 -114 -292 -128 -408 -29 -98 84 -117 219 -45 322
24 36 24 38 12 105 l-13 68 -52 -47z"/>
<path d="M4512 1865 c-88 -81 -165 -158 -171 -171 -36 -80 23 -164 117 -164
52 0 71 9 140 68 l53 45 -22 23 c-12 13 -27 24 -32 24 -6 0 -32 -20 -58 -45
-50 -46 -92 -58 -117 -33 -31 31 -13 56 148 204 88 81 159 148 157 148 -1 1
-14 11 -28 24 l-27 23 -160 -146z"/>
<path d="M1320 1986 c0 -2 51 -85 113 -183 62 -98 116 -183 120 -189 3 -6 -5
-27 -18 -47 -14 -20 -25 -41 -25 -46 0 -7 23 -11 53 -11 51 0 54 2 74 38 l22
37 -127 202 -127 202 -42 1 c-24 0 -43 -2 -43 -4z"/>
<path d="M1456 1978 c7 -11 161 -258 211 -337 l15 -23 20 32 c10 18 16 40 13
49 -3 9 -45 78 -93 153 l-87 138 -43 0 c-32 0 -41 -3 -36 -12z"/>
<path d="M1599 1958 c12 -18 49 -77 82 -130 34 -54 64 -98 67 -98 4 0 15 14
25 31 l18 32 -62 98 -62 99 -45 0 -44 0 21 -32z"/>
<path d="M3255 1951 c-18 -59 -150 -141 -225 -141 -35 0 -46 -28 -33 -81 7
-27 15 -35 37 -37 44 -5 157 34 216 75 55 39 133 129 127 148 -5 14 -78 55
-99 55 -9 0 -19 -8 -23 -19z"/>
<path d="M2847 1903 c-33 -71 -31 -209 2 -281 14 -29 28 -52 31 -52 4 0 27 17
50 38 42 37 43 39 32 72 -15 42 -15 128 0 170 11 32 10 35 -27 67 -21 18 -45
33 -52 33 -8 0 -24 -21 -36 -47z"/>
<path d="M4673 1866 l-28 -25 25 -24 c14 -14 87 -81 164 -151 146 -132 168
-145 243 -133 43 7 79 39 93 83 15 46 -7 93 -72 153 l-53 49 -27 -25 -27 -26
49 -44 c55 -49 66 -73 50 -103 -7 -14 -21 -20 -43 -20 -27 0 -55 22 -189 145
l-157 145 -28 -24z"/>
<path d="M5097 1864 l-27 -23 56 -53 c71 -67 88 -99 81 -156 -9 -82 -71 -134
-160 -135 -30 -1 -65 6 -82 15 -16 9 -99 80 -183 157 -84 78 -156 141 -160
141 -4 0 -18 -9 -32 -20 l-25 -20 46 -43 c300 -279 330 -300 429 -301 75 -1
140 26 189 79 94 102 75 230 -51 337 l-54 46 -27 -24z"/>
<path d="M667 1840 c-26 -44 -26 -45 -9 -75 l18 -30 261 -3 261 -2 22 30 21
30 -78 1 c-43 1 -152 2 -241 2 -180 2 -161 -4 -213 68 l-16 23 -26 -44z"/>
<path d="M1217 1680 l-119 -190 -54 0 c-30 0 -54 -2 -54 -6 0 -3 10 -23 23
-44 21 -37 25 -40 69 -40 l46 0 127 201 127 201 -18 34 c-10 19 -21 34 -24 34
-3 -1 -58 -86 -123 -190z"/>
<path d="M1288 1584 l-117 -185 46 3 46 3 93 147 93 148 -20 35 c-12 19 -22
35 -22 35 -1 0 -55 -84 -119 -186z"/>
<path d="M727 1658 l19 -33 191 -3 191 -2 21 29 c12 16 21 32 21 35 0 3 -104
6 -231 6 l-231 0 19 -32z"/>
<path d="M1453 1633 c-30 -42 -143 -223 -143 -229 0 -2 18 -4 40 -4 39 0 41 2
96 88 32 48 59 94 61 102 2 8 -5 28 -16 43 l-18 29 -20 -29z"/>
<path d="M780 1580 c0 -6 7 -22 16 -35 16 -24 19 -25 144 -25 125 0 128 1 144
25 9 13 16 29 16 35 0 6 -56 10 -160 10 -104 0 -160 -4 -160 -10z"/>
<path d="M4312 914 l-162 -86 2 -176 3 -177 165 -87 165 -87 135 70 136 70
132 -71 133 -70 166 88 165 88 -1 174 c0 95 -4 177 -8 181 -14 14 -311 169
-323 169 -7 0 -66 -29 -131 -65 -65 -36 -125 -65 -134 -65 -9 0 -71 29 -137
65 -67 36 -126 65 -132 65 -6 0 -84 -39 -174 -86z m251 -88 l59 -34 -95 -51
c-90 -49 -107 -64 -107 -97 0 -21 37 -54 62 -54 11 0 134 61 273 135 138 74
257 135 263 135 6 0 55 -21 107 -47 l95 -48 0 -111 0 -111 -99 -52 -100 -52
-65 33 c-36 17 -63 36 -60 40 3 5 41 26 85 48 90 46 117 76 98 112 -15 28 -28
38 -53 38 -17 0 -158 -68 -291 -140 -27 -15 -94 -51 -149 -80 l-98 -53 -104
54 -104 54 0 107 0 107 93 49 c50 28 101 50 112 51 11 0 46 -15 78 -33z"/>
<path d="M780 969 c-112 -40 -194 -126 -227 -238 -67 -230 170 -459 426 -412
74 14 165 59 206 101 l28 29 41 -35 c195 -167 491 -118 603 101 37 71 42 170
13 247 -29 79 -96 150 -178 190 -62 31 -73 33 -172 33 -93 0 -112 -3 -161 -26
-31 -15 -74 -43 -96 -63 -22 -20 -43 -36 -47 -36 -3 0 -23 16 -45 35 -68 61
-143 89 -246 92 -69 2 -103 -2 -145 -18z m202 -30 c86 -19 118 -41 303 -213
114 -106 187 -167 206 -171 44 -10 86 3 114 37 35 41 33 87 -4 127 -25 27 -36
31 -80 31 -42 0 -56 -5 -86 -31 -28 -25 -39 -29 -48 -20 -9 10 -4 20 27 47 66
58 149 58 210 1 107 -101 7 -252 -147 -223 -27 5 -75 44 -212 172 -203 190
-241 214 -346 214 -84 0 -147 -22 -202 -70 -94 -83 -114 -220 -47 -319 104
-152 308 -173 449 -46 31 28 41 32 49 22 16 -18 -47 -79 -113 -109 -41 -19
-67 -23 -145 -23 -83 1 -102 4 -145 27 -28 14 -71 48 -97 76 -172 184 -31 467
239 481 12 1 46 -4 75 -10z m660 -14 c58 -20 130 -82 166 -143 23 -41 27 -58
27 -127 0 -94 -18 -138 -80 -201 -68 -68 -124 -89 -235 -89 -129 0 -158 15
-339 184 -216 201 -216 201 -261 201 -54 0 -85 -16 -106 -55 -24 -45 -10 -92
36 -123 46 -31 98 -25 150 17 30 24 40 28 49 17 8 -9 5 -18 -12 -33 -47 -42
-72 -53 -122 -53 -86 0 -148 54 -148 129 0 98 113 169 205 128 15 -7 107 -86
204 -176 110 -102 193 -171 221 -183 187 -83 403 42 403 234 0 71 -16 113 -66
168 -62 68 -103 85 -214 85 -105 0 -134 -10 -203 -72 -35 -31 -57 -36 -57 -12
0 6 12 21 28 35 99 88 225 113 354 69z m-648 -71 c37 -13 84 -50 214 -171 217
-201 227 -208 313 -208 59 0 73 4 111 30 59 41 91 105 84 165 -13 95 -91 160
-194 160 -61 0 -104 -16 -149 -54 -24 -20 -37 -25 -49 -18 -14 8 -9 16 34 50
92 72 193 79 293 19 92 -56 128 -171 81 -263 -74 -145 -273 -166 -402 -42
-193 183 -303 280 -333 293 -77 32 -177 14 -228 -42 -38 -40 -51 -69 -51 -117
-2 -89 58 -158 153 -178 69 -14 121 0 179 46 38 30 70 38 70 17 0 -12 -94 -78
-129 -90 -143 -48 -299 46 -309 187 -11 158 152 270 312 216z m-24 -170 l31
-27 -27 -28 c-32 -33 -77 -38 -106 -12 -24 21 -23 48 2 73 27 27 62 25 100 -6z
m588 10 c26 -18 28 -50 5 -76 -23 -25 -67 -23 -100 7 l-28 25 33 30 c36 34 57
37 90 14z"/>
<path d="M2330 830 l0 -70 48 2 c43 1 44 2 10 5 -33 4 -38 8 -38 29 0 20 5 24
30 24 17 0 30 4 30 10 0 5 -13 8 -30 6 -27 -3 -30 -1 -30 25 0 25 4 28 38 32
34 3 33 4 -10 5 l-48 2 0 -70z"/>
<path d="M2717 893 c-4 -3 -7 -35 -7 -70 l0 -63 48 2 c43 1 44 2 10 5 -33 4
-38 8 -38 29 0 20 5 24 30 24 17 0 30 5 30 10 0 6 -13 10 -30 10 -25 0 -30 4
-30 24 0 21 5 25 38 29 l37 4 -41 1 c-22 1 -44 -1 -47 -5z"/>
<path d="M2909 898 c0 -2 -3 -33 -5 -70 -3 -43 -1 -68 6 -68 5 0 10 23 11 53
l0 52 27 -52 c14 -29 29 -53 32 -53 3 0 16 26 30 58 l25 57 6 -60 6 -60 1 73
c2 86 -7 87 -44 4 l-26 -57 -28 63 c-25 53 -37 71 -41 60z"/>
<path d="M3160 830 l0 -70 48 2 47 1 -42 4 c-38 4 -43 7 -43 29 0 21 5 24 35
24 19 0 35 5 35 10 0 6 -16 10 -36 10 -31 0 -35 3 -32 23 2 17 11 23 43 28
l40 6 -47 2 -48 1 0 -70z"/>
<path d="M3350 828 c0 -39 3 -68 7 -64 4 3 6 30 5 59 l-2 52 25 -30 c14 -16
33 -42 43 -57 9 -16 20 -28 24 -28 4 0 7 33 6 73 l-1 72 -6 -60 -6 -60 -40 57
c-22 32 -43 58 -47 58 -5 0 -8 -32 -8 -72z"/>
<path d="M3583 893 c26 -4 27 -6 29 -71 l1 -67 6 65 c5 58 8 65 31 71 16 5 4
7 -35 7 -33 -1 -48 -3 -32 -5z"/>
<path d="M2520 825 l0 -65 48 2 c43 1 44 2 10 5 l-38 4 0 60 c0 33 -4 59 -10
59 -6 0 -10 -28 -10 -65z"/>
<path d="M2330 560 l0 -150 670 0 670 0 0 150 0 150 -670 0 -670 0 0 -150z
m223 78 c31 -16 46 -39 47 -68 0 -70 -35 -100 -115 -100 l-45 0 0 90 0 90 46
0 c25 0 55 -5 67 -12z m245 0 c-3 -7 -27 -15 -54 -18 -36 -4 -50 -10 -52 -22
-3 -15 4 -18 47 -18 39 0 51 -4 51 -15 0 -11 -12 -15 -51 -15 -47 0 -50 -2
-47 -22 3 -20 10 -23 56 -26 38 -2 52 -7 52 -18 0 -12 -14 -14 -72 -12 l-73 3
-1 88 -2 87 75 0 c55 0 74 -3 71 -12z m173 2 c25 -14 25 -40 -1 -40 -11 0 -20
5 -20 10 0 6 -14 10 -31 10 -48 0 -33 -29 26 -48 56 -19 70 -49 39 -83 -24
-27 -97 -26 -124 1 -12 12 -18 25 -15 30 9 15 35 12 41 -5 4 -9 19 -15 41 -15
48 0 41 29 -11 46 -21 8 -45 19 -52 25 -20 16 -17 56 4 68 22 14 78 14 103 1z
m119 -81 c0 -81 -2 -90 -17 -87 -15 3 -18 17 -21 91 -3 82 -2 87 18 87 19 0
20 -6 20 -91z m208 75 c12 -8 22 -22 22 -30 0 -19 -36 -18 -44 1 -7 18 -57 20
-74 3 -15 -15 -16 -63 -2 -89 15 -26 66 -26 80 1 9 18 8 20 -15 20 -41 0 -24
24 18 28 l37 3 0 -49 0 -48 -61 -2 c-52 -2 -64 2 -85 23 -35 35 -34 105 2 134
32 25 90 28 122 5z m183 -36 l34 -53 3 53 c3 44 6 52 23 52 17 0 19 -7 19 -90
0 -79 -2 -90 -17 -90 -10 0 -35 25 -58 58 l-40 57 -3 -57 c-2 -43 -7 -58 -17
-58 -12 0 -15 18 -15 90 0 82 2 90 19 90 12 0 31 -19 52 -52z"/>
<path d="M2480 560 c0 -57 1 -60 24 -60 34 0 56 26 56 66 0 28 -5 36 -26 44
-49 19 -54 15 -54 -50z"/>
</g>
</svg>
