<?xml version="1.0" standalone="no"?>
<!DOCTYPE svg PUBLIC "-//W3C//DTD SVG 20010904//EN"
 "http://www.w3.org/TR/2001/REC-SVG-20010904/DTD/svg10.dtd">
<svg version="1.0" xmlns="http://www.w3.org/2000/svg"
 width="292.000000pt" height="173.000000pt" viewBox="0 0 292.000000 173.000000"
 preserveAspectRatio="xMidYMid meet">

<g transform="translate(0.000000,173.000000) scale(0.100000,-0.100000)"
fill="#000000" stroke="none">
<path d="M1817 1672 c-23 -32 -63 -89 -89 -125 -27 -37 -55 -67 -63 -67 -20 0
-20 1 20 126 19 60 35 110 35 112 0 1 -35 2 -78 2 l-77 0 -113 -382 c-62 -211
-119 -404 -127 -430 l-14 -48 78 0 78 0 51 177 c29 97 56 181 61 186 22 22 31
-8 31 -107 0 -57 3 -137 6 -179 l7 -77 74 0 75 0 -6 28 c-3 15 -10 126 -17
247 l-12 220 127 177 c69 98 126 182 126 188 0 6 -28 10 -65 10 l-65 0 -43
-58z"/>
<path d="M2070 1708 c-13 -31 -240 -820 -240 -835 0 -9 20 -13 68 -14 64 0 43
-8 -498 -170 -658 -197 -695 -208 -776 -216 -77 -7 -125 8 -180 59 -107 99
-124 299 -43 521 34 94 31 92 -95 -57 -212 -252 -300 -439 -300 -636 -1 -88 2
-101 32 -163 109 -221 384 -254 780 -93 113 46 2105 1027 2098 1033 -2 2 -162
-44 -355 -102 -193 -58 -354 -105 -357 -105 -3 0 -3 18 1 40 l7 40 -96 0 c-70
0 -96 3 -96 13 0 6 15 59 33 117 l33 105 81 5 c45 3 84 8 86 10 2 3 11 31 20
63 l16 57 -81 0 -80 0 7 29 c3 16 16 62 28 103 l23 73 82 3 81 3 21 65 c11 37
20 68 20 70 0 2 -70 4 -155 4 -152 0 -156 -1 -165 -22z"/>
<path d="M591 1297 c-68 -232 -126 -428 -129 -435 -3 -10 13 -12 74 -10 l79 3
60 200 c33 110 64 206 68 213 24 36 28 -9 21 -210 l-7 -209 77 2 c68 2 79 5
87 23 11 25 249 827 249 839 0 4 -35 7 -77 5 l-76 -3 -56 -185 c-44 -145 -60
-185 -74 -188 -17 -3 -18 2 -13 60 3 34 8 120 12 191 l6 127 -88 0 -89 0 -124
-423z"/>
<path d="M1266 1638 c-51 -168 -215 -724 -221 -751 l-7 -28 78 3 78 3 123 415
c67 228 123 421 123 428 0 8 -21 12 -75 12 l-74 0 -25 -82z"/>
</g>
</svg>
