<?xml version="1.0" standalone="no"?>
<!DOCTYPE svg PUBLIC "-//W3C//DTD SVG 20010904//EN"
 "http://www.w3.org/TR/2001/REC-SVG-20010904/DTD/svg10.dtd">
<svg version="1.0" xmlns="http://www.w3.org/2000/svg"
 width="1300.000000pt" height="1070.000000pt" viewBox="0 0 1300.000000 1070.000000"
 preserveAspectRatio="xMidYMid meet">

<g transform="translate(0.000000,1070.000000) scale(0.100000,-0.100000)"
fill="#000000" stroke="none">
<path d="M4325 10269 c-354 -22 -791 -90 -1126 -174 -790 -198 -1483 -560
-1964 -1025 -380 -367 -628 -741 -798 -1205 -128 -352 -187 -692 -187 -1090 0
-295 29 -550 96 -830 19 -82 48 -215 65 -294 130 -632 376 -1209 762 -1786 75
-112 269 -376 333 -455 106 -127 214 -252 253 -293 l45 -47 66 62 65 63 -65
-67 -64 -68 169 -171 c167 -168 301 -294 420 -394 32 -27 75 -64 94 -81 168
-145 388 -310 691 -519 117 -81 338 -218 498 -310 104 -60 149 -82 158 -74 8
7 11 5 10 -7 -2 -26 508 -281 824 -411 313 -129 657 -254 860 -313 36 -10 106
-30 155 -45 147 -43 520 -132 715 -170 l35 -7 -25 28 -25 29 33 -30 c24 -21
51 -33 95 -42 l62 -11 135 131 135 132 -129 -132 -129 -131 34 -6 c406 -70
781 -100 1249 -100 664 0 1173 68 1755 235 118 34 175 52 294 95 11 3 2 18
-30 52 l-44 47 47 -44 c40 -37 50 -43 75 -36 88 22 493 205 643 290 36 21 81
46 100 57 19 11 73 45 120 75 133 87 150 97 240 148 485 272 972 739 1235
1186 249 423 394 869 436 1343 17 189 7 563 -21 751 -37 259 -90 483 -174 736
-234 706 -635 1376 -1215 2029 -207 232 -781 780 -819 780 -5 0 -12 6 -15 13
-3 8 -74 67 -158 133 -285 221 -440 331 -760 536 -83 54 -357 218 -363 218 -2
0 -48 25 -102 56 -93 53 -443 231 -564 287 -1083 502 -2201 792 -3295 857
-197 11 -740 11 -930 -1z m812 -345 c-3 -3 -12 -4 -19 -1 -8 3 -5 6 6 6 11 1
17 -2 13 -5z m-147 -444 c0 -5 -5 -10 -11 -10 -5 0 -7 5 -4 10 3 6 8 10 11 10
2 0 4 -4 4 -10z m-476 -274 c-3 -9 -10 -13 -15 -10 -5 3 -3 11 4 19 15 16 19
13 11 -9z m2009 -1401 c16 14 16 14 2 -2 -14 -16 22 -55 457 -493 l473 -475
-475 473 -475 472 -23 -20 -22 -20 20 22 20 23 -597 600 -598 600 600 -598
c554 -551 602 -596 618 -582z m-3708 102 c4 4 5 3 1 -4 -3 -6 -2 -15 4 -18 6
-4 238 220 516 497 278 277 507 504 509 506 13 6 -37 -44 -505 -513 l-504
-506 524 -527 525 -527 -520 518 c-286 284 -524 517 -529 517 -4 0 -5 -7 -2
-15 4 -12 2 -14 -11 -6 -14 7 -115 -89 -565 -538 -302 -300 -552 -548 -556
-551 -22 -16 58 68 263 272 127 127 229 236 227 242 -2 6 -1 8 3 4 9 -9 85 64
78 75 -3 6 -2 8 3 5 12 -7 55 38 46 47 -4 4 -2 5 4 3 15 -4 110 91 106 106 -2
6 -1 8 3 4 10 -9 85 64 78 76 -3 6 -3 8 2 4 10 -9 161 141 157 156 -2 6 0 8 4
4 4 -4 36 21 70 57 57 59 85 81 69 55 -3 -5 -4 -10 -1 -10 34 0 -52 93 -535
579 l-554 556 540 -538 c298 -296 545 -534 550 -530z m4755 940 c0 -2 -10 -12
-22 -23 l-23 -19 19 23 c18 21 26 27 26 19z m-6274 -59 c4 -7 4 -10 -1 -6 -4
4 -15 2 -24 -5 -14 -11 -14 -10 -2 6 16 20 18 21 27 5z m164 -12 c0 -2 -8 -10
-17 -17 -16 -13 -17 -12 -4 4 13 16 21 21 21 13z m6030 -9 c0 -2 -10 -12 -22
-23 l-23 -19 19 23 c18 21 26 27 26 19z m-80 -80 c0 -2 -15 -16 -32 -33 l-33
-29 29 33 c28 30 36 37 36 29z m-6060 -30 c0 -2 -10 -12 -22 -23 l-23 -19 19
23 c18 21 26 27 26 19z m-190 -11 c0 -2 -8 -10 -17 -17 -16 -13 -17 -12 -4 4
13 16 21 21 21 13z m35 -15 c-9 -8 -36 -10 -30 -2 2 4 11 8 20 8 8 0 13 -3 10
-6z m8276 -28 c13 -16 12 -17 -3 -4 -10 7 -18 15 -18 17 0 8 8 3 21 -13z
m-8241 -3 c0 -5 -4 -10 -10 -10 -5 0 -10 5 -10 10 0 6 5 10 10 10 6 0 10 -4
10 -10z m80 6 c0 -2 -6 -9 -14 -15 -11 -9 -16 -9 -22 0 -4 7 -3 9 4 5 6 -3 13
-2 17 4 6 10 15 14 15 6z m6020 1 c0 -2 -10 -12 -22 -23 l-23 -19 19 23 c18
21 26 27 26 19z m-6083 -42 c-7 -14 -15 -25 -19 -25 -5 0 -8 -7 -8 -16 0 -14
2 -15 18 -3 15 13 16 12 3 -3 -7 -10 -18 -15 -24 -11 -6 4 -8 0 -4 -10 3 -10
2 -17 -3 -17 -6 0 -10 -5 -10 -11 0 -15 -39 -69 -51 -69 -5 0 -9 5 -9 11 0 5
5 7 10 4 16 -10 12 11 -5 25 -13 11 -14 10 -9 -5 6 -14 4 -16 -7 -10 -11 7
-11 4 2 -15 15 -24 14 -28 -27 -87 -23 -34 -45 -59 -48 -55 -4 3 -4 -1 0 -11
3 -9 2 -17 -4 -17 -5 0 -12 -10 -15 -22 -5 -19 -8 -20 -24 -8 -15 12 -16 12
-5 0 15 -18 16 -34 0 -24 -7 4 -8 3 -4 -4 7 -12 -38 -100 -59 -114 -5 -4 -7
-8 -3 -8 4 0 -22 -60 -56 -132 -35 -73 -74 -160 -87 -193 -13 -33 -26 -62 -29
-65 -3 -3 -5 -9 -5 -15 -1 -26 -18 -75 -25 -75 -5 0 -7 -7 -4 -15 4 -8 2 -15
-3 -15 -5 0 -10 -9 -11 -20 -4 -43 -6 -49 -19 -54 -7 -3 -13 -11 -13 -18 0 -9
3 -9 11 2 8 12 9 9 4 -10 -4 -14 -15 -56 -24 -95 -12 -47 -19 -63 -23 -50 -4
12 -6 4 -7 -20 -2 -50 -15 -75 -25 -49 -4 11 -2 20 3 22 6 2 11 10 11 18 0 10
-13 14 -45 14 -46 0 -46 0 -42 -32 2 -18 2 -25 0 -15 -2 9 -8 17 -13 17 -4 0
-3 14 3 30 9 24 9 35 -1 51 -8 13 -9 18 -2 14 7 -5 9 2 5 22 -4 16 -3 23 2 17
5 -7 9 11 9 44 1 31 7 58 13 60 6 2 9 8 6 12 -3 5 1 31 9 57 8 26 27 88 42
137 26 87 58 172 91 246 41 92 116 236 126 245 7 6 13 16 15 24 2 8 12 27 23
42 10 15 19 32 19 37 0 6 5 14 12 18 7 5 8 3 3 -6 -5 -9 -4 -11 3 -6 7 4 12
15 12 24 0 9 9 32 21 51 19 32 21 33 40 16 18 -18 20 -16 23 15 1 8 6 14 11
13 6 -1 11 14 11 33 2 38 -4 40 -11 4 -3 -13 -9 -28 -14 -33 -5 -5 -7 -17 -4
-26 3 -12 0 -11 -12 4 -14 18 -14 21 0 31 8 6 13 13 10 16 -3 2 11 22 30 44
19 21 34 34 35 27 0 -6 -4 -15 -10 -18 -5 -3 -10 -16 -10 -28 l0 -21 16 22 c9
14 14 36 12 53 -5 32 15 59 27 38 4 -6 4 -14 -1 -18 -12 -8 -15 -71 -4 -71 5
0 10 17 12 37 3 34 28 62 28 31 0 -8 13 -27 29 -42 l28 -27 7 26 c4 14 4 31 0
37 -4 6 -3 8 3 5 5 -4 16 5 23 18 17 33 32 32 17 0z m23 -10 c-7 -9 -15 -13
-19 -10 -3 3 1 10 9 15 21 14 24 12 10 -5z m5980 -28 c0 -2 -15 -16 -32 -33
l-33 -29 29 33 c28 30 36 37 36 29z m2580 -284 c0 -8 -15 7 -140 135 l-135
137 138 -135 c75 -74 137 -136 137 -137z m-2660 204 c0 -2 -10 -12 -22 -23
l-23 -19 19 23 c18 21 26 27 26 19z m-80 -80 c0 -2 -15 -16 -32 -33 l-33 -29
29 33 c28 30 36 37 36 29z m-80 -80 c0 -2 -10 -12 -22 -23 l-23 -19 19 23 c18
21 26 27 26 19z m2950 -172 c63 -63 112 -115 110 -115 -3 0 -57 52 -120 115
-63 63 -112 115 -110 115 3 0 57 -52 120 -115z m-3030 92 c0 -2 -15 -16 -32
-33 l-33 -29 29 33 c28 30 36 37 36 29z m-80 -80 c0 -2 -10 -12 -22 -23 l-23
-19 19 23 c18 21 26 27 26 19z m-80 -80 c0 -2 -15 -16 -32 -33 l-33 -29 29 33
c28 30 36 37 36 29z m3486 -117 c31 30 54 48 51 39 -3 -10 4 -25 17 -38 25
-23 41 -28 30 -8 -5 6 8 -1 27 -18 24 -21 35 -37 33 -53 -2 -22 9 -22 12 -1 1
5 2 12 3 16 0 4 14 -6 31 -22 16 -15 26 -33 23 -39 -3 -6 -3 -8 2 -4 8 8 30
-7 119 -85 167 -146 288 -266 280 -279 -4 -6 -2 -8 4 -4 12 7 78 -60 74 -75
-1 -6 2 -8 7 -5 11 7 33 -19 23 -28 -4 -4 -2 -6 4 -4 11 3 144 -133 144 -147
0 -3 -12 7 -26 24 -14 17 -31 31 -37 31 -6 0 0 -12 14 -26 l24 -27 -23 12
c-19 10 -27 10 -40 -1 -9 -8 -13 -8 -9 -1 10 17 -14 65 -30 59 -7 -3 -13 1
-13 10 0 10 8 13 26 10 15 -3 24 -2 20 1 -11 11 -40 12 -52 2 -14 -11 -26 13
-18 35 3 8 0 17 -7 22 -8 4 -10 3 -5 -4 4 -7 5 -16 2 -21 -3 -5 -75 61 -160
147 -85 85 -152 160 -149 165 3 6 2 7 -4 4 -5 -3 -56 39 -113 93 -92 89 -101
101 -89 116 13 16 12 16 -9 5 -23 -12 -36 -9 -38 10 -1 5 -2 13 -3 19 0 5 -8
7 -16 4 -11 -5 -13 -2 -9 10 4 10 1 16 -8 16 -8 0 -25 11 -38 25 -12 13 -27
22 -33 18 -6 -3 -7 -1 -3 5 16 26 -12 10 -49 -28 l-39 -40 339 -343 340 -342
-343 340 -342 340 -518 -515 -517 -515 515 517 515 518 -60 62 -60 63 62 -60
63 -59 56 54z m-3566 37 c0 -2 -10 -12 -22 -23 l-23 -19 19 23 c18 21 26 27
26 19z m-80 -80 c0 -2 -10 -12 -22 -23 l-23 -19 19 23 c18 21 26 27 26 19z
m-160 -160 c0 -2 -15 -16 -32 -33 l-33 -29 29 33 c28 30 36 37 36 29z m-80
-80 c0 -2 -10 -12 -22 -23 l-23 -19 19 23 c18 21 26 27 26 19z m-80 -80 c0 -2
-15 -16 -32 -33 l-33 -29 29 33 c28 30 36 37 36 29z m-80 -80 c0 -2 -10 -12
-22 -23 l-23 -19 19 23 c18 21 26 27 26 19z m-80 -80 c0 -2 -15 -16 -32 -33
l-33 -29 29 33 c28 30 36 37 36 29z m-5599 -104 c-12 -20 -14 -14 -5 12 4 9 9
14 11 11 3 -2 0 -13 -6 -23z m5519 24 c0 -2 -10 -12 -22 -23 l-23 -19 19 23
c18 21 26 27 26 19z m-70 -70 c0 -2 -17 -19 -37 -38 l-38 -34 34 38 c33 34 41
42 41 34z m5050 -37 c0 -5 -2 -10 -4 -10 -3 0 -8 5 -11 10 -3 6 -1 10 4 10 6
0 11 -4 11 -10z m-10501 -55 c0 -5 -4 -3 -9 5 -5 8 -9 22 -9 30 0 16 17 -16
18 -35z m2671 36 c0 -11 -76 -21 -166 -21 -59 0 -74 3 -74 15 0 13 20 15 120
15 66 0 120 -4 120 -9z m7884 -27 c9 -24 7 -27 -9 -10 -17 17 -19 26 -6 26 5
0 12 -7 15 -16z m-39 -144 c82 -82 147 -150 145 -150 -3 0 -73 68 -155 150
-82 83 -147 150 -145 150 3 0 73 -67 155 -150z m-5155 137 c0 -2 -10 -12 -22
-23 l-23 -19 19 23 c18 21 26 27 26 19z m-2683 -38 c-10 -16 -9 -22 3 -30 11
-8 5 -9 -25 -5 -23 3 -32 2 -22 -2 17 -7 17 -9 3 -21 -13 -11 -18 -10 -31 2
-13 13 -55 13 -55 0 0 -3 9 -3 20 0 14 4 20 0 20 -12 0 -9 -24 -31 -57 -50
-32 -19 -61 -39 -65 -45 -4 -6 -11 -6 -21 2 -17 14 -32 1 -39 -33 -3 -15 -10
-19 -32 -17 -24 3 -27 0 -21 -18 7 -21 6 -21 -14 -3 -24 20 -28 43 -6 43 10 0
15 10 15 30 0 24 4 30 21 30 11 0 17 5 14 10 -3 6 -1 10 4 10 6 0 11 18 11 40
0 28 4 40 14 40 8 0 16 -6 19 -12 2 -7 8 -9 13 -5 5 4 2 12 -6 17 -25 16 -5
20 114 27 90 5 116 9 116 20 0 8 4 11 10 8 6 -4 5 -13 -3 -26z m7935 19 c-16
-16 -15 -33 1 -19 10 8 14 7 14 -3 0 -14 -21 -16 -33 -3 -7 6 13 37 24 37 3 0
1 -5 -6 -12z m-7877 -28 c-28 -12 -47 -12 -40 0 3 6 18 10 33 9 24 0 25 -1 7
-9z m7950 -30 c-4 -6 -1 -19 6 -28 12 -16 12 -16 -5 0 -16 14 -15 38 0 38 3 0
2 -5 -1 -10z m-5405 -3 c0 -2 -15 -16 -32 -33 l-33 -29 29 33 c28 30 36 37 36
29z m-5183 -29 c-3 -8 -6 -5 -6 6 -1 11 2 17 5 13 3 -3 4 -12 1 -19z m-90 -30
c-3 -8 -6 -5 -6 6 -1 11 2 17 5 13 3 -3 4 -12 1 -19z m5193 -21 c0 -2 -10 -12
-22 -23 l-23 -19 19 23 c18 21 26 27 26 19z m-2916 -82 c-4 -8 -8 -15 -10 -15
-2 0 -4 7 -4 15 0 8 4 15 10 15 5 0 7 -7 4 -15z m2836 2 c0 -2 -15 -16 -32
-33 l-33 -29 29 33 c28 30 36 37 36 29z m-2813 -59 c-3 -8 -6 -5 -6 6 -1 11 2
17 5 13 3 -3 4 -12 1 -19z m8388 -18 c10 -11 16 -20 13 -20 -3 0 -13 9 -23 20
-10 11 -16 20 -13 20 3 0 13 -9 23 -20z m-5655 -3 c0 -2 -10 -12 -22 -23 l-23
-19 19 23 c18 21 26 27 26 19z m-80 -80 c0 -2 -10 -12 -22 -23 l-23 -19 19 23
c18 21 26 27 26 19z m-4413 -317 c45 -24 52 -24 89 -5 56 29 131 9 126 -34 -2
-19 1 -21 11 -13 10 9 31 -6 90 -66 43 -43 74 -82 70 -87 -4 -4 -3 -5 3 -2 6
3 36 -20 68 -52 52 -52 58 -62 59 -104 l2 -46 -140 -140 c-77 -77 -144 -141
-149 -141 -5 0 -2 8 7 18 27 29 20 38 -8 12 -14 -13 -23 -30 -21 -37 5 -13
-31 -59 -40 -50 -2 2 2 10 11 17 14 11 13 14 -2 26 -10 7 -28 14 -39 14 -12 0
-29 11 -38 25 -21 31 -21 41 0 20 19 -19 32 -12 15 8 -9 12 2 28 57 85 73 76
105 90 182 79 35 -4 43 -1 79 35 33 32 41 47 41 75 0 33 -12 49 -137 175 -76
77 -147 144 -157 150 -23 13 -117 21 -97 9 9 -6 6 -10 -10 -14 -15 -4 -30 0
-41 10 -10 9 -21 13 -25 10 -3 -4 -1 -7 5 -7 7 0 12 -5 12 -11 0 -5 -18 0 -40
12 -22 13 -40 26 -40 30 0 4 -8 10 -17 12 -11 3 -7 5 10 6 15 0 44 -8 64 -19z
m-102 -7 c-11 -3 -26 -10 -32 -15 -8 -6 -13 -7 -13 -1 0 16 12 23 39 22 21 -1
22 -2 6 -6z m-76 -55 c-8 -15 -13 -17 -24 -8 -11 9 -12 15 -2 25 19 20 39 7
26 -17z m-33 -19 c3 -6 2 -15 -4 -21 -6 -6 -11 -2 -15 11 -5 22 7 29 19 10z
m-34 -51 c-11 -11 -32 -3 -32 12 0 4 9 6 21 3 13 -4 17 -9 11 -15z m4158 2 c0
-5 -5 -10 -11 -10 -5 0 -7 5 -4 10 3 6 8 10 11 10 2 0 4 -4 4 -10z m-4203 -42
c-3 -8 -6 -5 -6 6 -1 11 2 17 5 13 3 -3 4 -12 1 -19z m-21 -25 c-3 -4 -6 -1
-6 5 0 7 -5 12 -11 12 -6 0 -9 -6 -6 -13 3 -8 1 -20 -4 -28 -6 -10 -9 -7 -9
12 0 34 21 55 33 33 5 -8 6 -18 3 -21z m336 -79 c5 -3 1 -12 -9 -20 -21 -16
-10 -18 17 -4 17 9 23 4 46 -30 16 -24 27 -56 29 -82 3 -41 2 -42 -5 -8 -7 35
-15 18 -11 -24 1 -11 -4 -26 -11 -35 -24 -29 -39 -62 -33 -70 3 -5 -12 -9 -33
-9 -20 0 -31 3 -24 5 7 3 12 22 12 44 0 32 -3 39 -20 39 -17 0 -20 7 -20 48 0
41 4 50 28 64 24 15 25 18 7 19 -11 1 -23 1 -27 0 -16 -2 -7 29 14 49 l22 20
-22 0 c-12 0 -21 -3 -21 -7 4 -25 -4 -33 -33 -32 -18 0 -27 3 -20 6 24 9 12
23 -13 13 -19 -7 -23 -6 -18 5 7 19 -11 19 -26 1 -10 -11 -8 -16 8 -21 17 -5
21 -15 21 -46 0 -43 -22 -54 -46 -21 -16 20 -18 46 -4 37 6 -3 10 -1 10 5 0 7
-9 14 -20 17 -19 5 -18 7 11 29 21 16 40 21 58 18 14 -3 37 -1 51 4 23 9 54 3
82 -14z m-477 -23 c-3 -5 0 -13 6 -16 7 -5 4 -14 -9 -29 -21 -23 -39 -96 -24
-96 16 0 20 -23 10 -50 l-10 -25 -18 35 c-20 36 -27 66 -10 40 7 -10 10 -11
10 -2 0 7 -5 21 -11 31 -15 23 -6 58 23 93 21 26 46 40 33 19z m242 -63 c-3
-7 -5 -2 -5 12 0 14 2 19 5 13 2 -7 2 -19 0 -25z m4108 12 c3 -5 1 -10 -4 -10
-6 0 -11 5 -11 10 0 6 2 10 4 10 3 0 8 -4 11 -10z m-4115 -35 c14 -19 14 -19
-2 -6 -10 7 -18 18 -18 24 0 6 1 8 3 6 1 -2 9 -13 17 -24z m5 -84 c-3 -6 -11
-11 -16 -11 -5 0 -4 6 3 14 14 16 24 13 13 -3z m3752 -13 c-3 -8 -6 -5 -6 6
-1 11 2 17 5 13 3 -3 4 -12 1 -19z m-3597 -28 c0 -33 -3 -40 -20 -40 -17 0
-20 7 -20 40 0 33 3 40 20 40 17 0 20 -7 20 -40z m141 -12 c-24 -39 -28 -30
-5 13 8 17 18 28 21 25 3 -3 -4 -20 -16 -38z m-534 0 c-3 -7 -5 -2 -5 12 0 14
2 19 5 13 2 -7 2 -19 0 -25z m247 6 c3 -8 2 -12 -4 -9 -6 3 -10 10 -10 16 0
14 7 11 14 -7z m-273 -37 c-10 -9 -11 -8 -5 6 3 10 9 15 12 12 3 -3 0 -11 -7
-18z m29 -22 c0 -8 -4 -15 -10 -15 -5 0 -10 7 -10 15 0 8 5 15 10 15 6 0 10
-7 10 -15z m413 8 c-7 -2 -19 -2 -25 0 -7 3 -2 5 12 5 14 0 19 -2 13 -5z m28
-26 c-33 -14 -49 -16 -65 -9 -20 10 -20 11 4 12 41 2 62 8 73 19 6 6 15 7 21
4 6 -4 -9 -15 -33 -26z m-454 -59 c-3 -8 -6 -5 -6 6 -1 11 2 17 5 13 3 -3 4
-12 1 -19z m8053 2 c0 -5 -2 -10 -4 -10 -3 0 -8 5 -11 10 -3 6 -1 10 4 10 6 0
11 -4 11 -10z m-7547 -41 c-6 -6 -9 -19 -6 -28 4 -12 3 -13 -5 -3 -6 9 -8 -14
-6 -65 l3 -78 -9 79 c-8 70 -7 81 8 92 21 16 30 18 15 3z m52 1 c3 -5 -1 -10
-9 -10 -9 0 -16 5 -16 10 0 6 4 10 9 10 6 0 13 -4 16 -10z m6819 -16 c3 -8 2
-12 -4 -9 -6 3 -10 10 -10 16 0 14 7 11 14 -7z m-6765 -30 c-21 -23 -21 -24
-3 -24 16 0 16 -2 4 -10 -19 -12 -23 -7 -25 29 -1 24 2 27 18 23 15 -4 18 -2
12 8 -6 9 -4 11 4 5 9 -5 7 -13 -10 -31z m-158 -17 c-10 -9 -11 -8 -5 6 3 10
9 15 12 12 3 -3 0 -11 -7 -18z m19 -33 c0 -8 -5 -12 -10 -9 -6 4 -8 11 -5 16
9 14 15 11 15 -7z m103 -22 c-10 -10 -20 -17 -22 -16 -6 5 20 34 30 34 5 0 1
-8 -8 -18z m-462 -9 c13 -16 12 -17 -3 -4 -17 13 -22 21 -14 21 2 0 10 -8 17
-17z m419 8 c0 -5 -6 -14 -14 -20 -12 -10 -13 -8 -9 8 5 21 23 30 23 12z
m10467 -113 c-3 -8 -6 -5 -6 6 -1 11 2 17 5 13 3 -3 4 -12 1 -19z m-10607 -33
c0 -2 -10 -9 -22 -15 -22 -11 -22 -10 -4 4 21 17 26 19 26 11z m0 -35 c-24
-15 -36 -11 -14 4 10 8 21 12 24 10 2 -3 -2 -9 -10 -14z m-56 -6 c3 -8 2 -12
-4 -9 -6 3 -10 10 -10 16 0 14 7 11 14 -7z m2398 -839 l493 490 -490 -492
-490 -493 490 -492 490 -493 -492 490 -493 490 -317 -315 -318 -315 315 318
315 317 -585 588 -585 587 587 -585 588 -585 492 490z m2143 615 c10 -11 16
-20 13 -20 -3 0 -13 9 -23 20 -10 11 -16 20 -13 20 3 0 13 -9 23 -20z m5235
-535 l-555 -555 525 -527 525 -528 -527 525 -528 525 -522 -520 -523 -520 520
523 520 522 -545 548 -545 547 548 -545 547 -545 553 553 c303 303 554 552
557 552 3 0 -245 -250 -550 -555z m-3230 490 c-24 -25 -46 -45 -49 -45 -3 0
15 20 39 45 24 25 46 45 49 45 3 0 -15 -20 -39 -45z m-1914 -47 l29 -33 -32
29 c-31 28 -38 36 -30 36 2 0 16 -15 33 -32z m1854 -11 c0 -2 -17 -19 -37 -38
l-38 -34 34 38 c33 34 41 42 41 34z m-1785 -57 c10 -11 16 -20 13 -20 -3 0
-13 9 -23 20 -10 11 -16 20 -13 20 3 0 13 -9 23 -20z m1705 -23 c0 -2 -17 -19
-37 -38 l-38 -34 34 38 c33 34 41 42 41 34z m-1614 -69 l29 -33 -32 29 c-31
28 -38 36 -30 36 2 0 16 -15 33 -32z m1534 -11 c0 -2 -17 -19 -37 -38 l-38
-34 34 38 c33 34 41 42 41 34z m-1465 -57 c10 -11 16 -20 13 -20 -3 0 -13 9
-23 20 -10 11 -16 20 -13 20 3 0 13 -9 23 -20z m1385 -23 c0 -2 -17 -19 -37
-38 l-38 -34 34 38 c33 34 41 42 41 34z m-1294 -69 l29 -33 -32 29 c-31 28
-38 36 -30 36 2 0 16 -15 33 -32z m1214 -11 c0 -2 -17 -19 -37 -38 l-38 -34
34 38 c33 34 41 42 41 34z m-1145 -57 c10 -11 16 -20 13 -20 -3 0 -13 9 -23
20 -10 11 -16 20 -13 20 3 0 13 -9 23 -20z m1065 -23 c0 -2 -17 -19 -37 -38
l-38 -34 34 38 c33 34 41 42 41 34z m-974 -69 l29 -33 -32 29 c-31 28 -38 36
-30 36 2 0 16 -15 33 -32z m894 -11 c0 -2 -17 -19 -37 -38 l-38 -34 34 38 c33
34 41 42 41 34z m-825 -57 c10 -11 16 -20 13 -20 -3 0 -13 9 -23 20 -10 11
-16 20 -13 20 3 0 13 -9 23 -20z m745 -23 c0 -2 -17 -19 -37 -38 l-38 -34 34
38 c33 34 41 42 41 34z m-654 -69 l29 -33 -32 29 c-18 17 -33 31 -33 33 0 8 8
1 36 -29z m574 -11 c0 -2 -17 -19 -37 -38 l-38 -34 34 38 c33 34 41 42 41 34z
m-505 -57 c10 -11 16 -20 13 -20 -3 0 -13 9 -23 20 -10 11 -16 20 -13 20 3 0
13 -9 23 -20z m425 -23 c0 -2 -17 -19 -37 -38 l-38 -34 34 38 c33 34 41 42 41
34z m-334 -69 l29 -33 -32 29 c-31 28 -38 36 -30 36 2 0 16 -15 33 -32z m254
-11 c0 -2 -17 -19 -37 -38 l-38 -34 34 38 c33 34 41 42 41 34z m-185 -57 c10
-11 16 -20 13 -20 -3 0 -13 9 -23 20 -10 11 -16 20 -13 20 3 0 13 -9 23 -20z
m35 -95 c-41 -41 -77 -75 -79 -75 -3 0 18 24 47 53 50 51 51 53 35 72 -18 19
-17 19 3 2 20 -16 22 -16 39 3 10 11 21 20 24 20 3 0 -28 -34 -69 -75z m65 -5
c10 -11 16 -20 13 -20 -3 0 -13 9 -23 20 -10 11 -16 20 -13 20 3 0 13 -9 23
-20z m60 -60 c10 -11 16 -20 13 -20 -3 0 -13 9 -23 20 -10 11 -16 20 -13 20 3
0 13 -9 23 -20z m-215 -23 c0 -2 -17 -19 -37 -38 l-38 -34 34 38 c33 34 41 42
41 34z m306 -69 l29 -33 -32 29 c-31 28 -38 36 -30 36 2 0 16 -15 33 -32z
m-386 -11 c0 -2 -17 -19 -37 -38 l-38 -34 34 38 c33 34 41 42 41 34z m455 -57
c10 -11 16 -20 13 -20 -3 0 -13 9 -23 20 -10 11 -16 20 -13 20 3 0 13 -9 23
-20z m-535 -23 c0 -2 -17 -19 -37 -38 l-38 -34 34 38 c33 34 41 42 41 34z
m626 -69 l29 -33 -32 29 c-18 17 -33 31 -33 33 0 8 8 1 36 -29z m-706 -11 c0
-2 -17 -19 -37 -38 l-38 -34 34 38 c33 34 41 42 41 34z m775 -57 c10 -11 16
-20 13 -20 -3 0 -13 9 -23 20 -10 11 -16 20 -13 20 3 0 13 -9 23 -20z m-855
-23 c0 -2 -17 -19 -37 -38 l-38 -34 34 38 c33 34 41 42 41 34z m946 -69 l29
-33 -32 29 c-31 28 -38 36 -30 36 2 0 16 -15 33 -32z m-1026 -11 c0 -2 -17
-19 -37 -38 l-38 -34 34 38 c33 34 41 42 41 34z m1095 -57 c10 -11 16 -20 13
-20 -3 0 -13 9 -23 20 -10 11 -16 20 -13 20 3 0 13 -9 23 -20z m-1175 -23 c0
-2 -17 -19 -37 -38 l-38 -34 34 38 c33 34 41 42 41 34z m1266 -69 l29 -33 -32
29 c-18 17 -33 31 -33 33 0 8 8 1 36 -29z m-1346 -11 c0 -2 -17 -19 -37 -38
l-38 -34 34 38 c33 34 41 42 41 34z m1415 -57 c10 -11 16 -20 13 -20 -3 0 -13
9 -23 20 -10 11 -16 20 -13 20 3 0 13 -9 23 -20z m-1495 -23 c0 -2 -17 -19
-37 -38 l-38 -34 34 38 c33 34 41 42 41 34z m1586 -69 l29 -33 -32 29 c-31 28
-38 36 -30 36 2 0 16 -15 33 -32z m-1666 -11 c0 -2 -17 -19 -37 -38 l-38 -34
34 38 c33 34 41 42 41 34z m1735 -57 c10 -11 16 -20 13 -20 -3 0 -13 9 -23 20
-10 11 -16 20 -13 20 3 0 13 -9 23 -20z m-5355 7 c0 -2 -17 -19 -37 -38 l-38
-34 34 38 c33 34 41 42 41 34z m3540 -30 c0 -2 -17 -19 -37 -38 l-38 -34 34
38 c33 34 41 42 41 34z m1906 -69 l29 -33 -32 29 c-18 17 -33 31 -33 33 0 8 8
1 36 -29z m-1986 -11 c0 -2 -17 -19 -37 -38 l-38 -34 34 38 c33 34 41 42 41
34z m2045 -47 c10 -11 16 -20 13 -20 -3 0 -13 9 -23 20 -10 11 -16 20 -13 20
3 0 13 -9 23 -20z m-2125 -33 c0 -2 -12 -14 -27 -28 l-28 -24 24 28 c23 25 31
32 31 24z m3290 -281 c0 -3 -4 -8 -10 -11 -5 -3 -10 -1 -10 4 0 6 5 11 10 11
6 0 10 -2 10 -4z m3049 -259 c0 -9 -2 -8 -6 1 -2 6 -10 9 -15 6 -7 -4 -8 -2
-4 5 9 13 26 5 25 -12z m-6546 -122 c-3 -9 -8 -14 -10 -11 -3 3 -2 9 2 15 9
16 15 13 8 -4z m3090 -10 c-7 -21 -12 -19 -10 4 0 11 5 18 9 15 4 -3 5 -11 1
-19z m3342 5 c-3 -5 -11 -10 -16 -10 -6 0 -7 5 -4 10 3 6 11 10 16 10 6 0 7
-4 4 -10z m-6418 -22 c-3 -8 -6 -5 -6 6 -1 11 2 17 5 13 3 -3 4 -12 1 -19z
m6347 -54 c3 -8 2 -12 -4 -9 -6 3 -10 10 -10 16 0 14 7 11 14 -7z m-3164 -8
c0 -2 -7 -7 -16 -10 -8 -3 -12 -2 -9 4 6 10 25 14 25 6z m-4166 -72 c3 -8 2
-12 -4 -9 -6 3 -10 10 -10 16 0 14 7 11 14 -7z m4033 -6 c-3 -8 -6 -5 -6 6 -1
11 2 17 5 13 3 -3 4 -12 1 -19z m-33 -54 c3 -8 2 -12 -4 -9 -6 3 -10 10 -10
16 0 14 7 11 14 -7z m-3809 -314 c-3 -5 -12 -10 -18 -10 -7 0 -6 4 3 10 19 12
23 12 15 0z m1035 -415 c19 -19 32 -35 29 -35 -3 0 -20 16 -39 35 -19 19 -32
35 -29 35 3 0 20 -16 39 -35z m5730 12 c0 -1 -37 -38 -82 -82 l-83 -80 80 83
c74 76 85 87 85 79z m-1845 -197 c93 -93 168 -170 165 -170 -3 0 -82 77 -175
170 -93 94 -168 170 -165 170 3 0 82 -76 175 -170z m-3805 105 c19 -19 32 -35
29 -35 -3 0 -20 16 -39 35 -19 19 -32 35 -29 35 3 0 20 -16 39 -35z m1940 22
c0 -2 -17 -19 -37 -38 l-38 -34 34 38 c33 34 41 42 41 34z m-80 -80 c0 -2 -17
-19 -37 -38 l-38 -34 34 38 c33 34 41 42 41 34z m-80 -80 c0 -2 -17 -19 -37
-38 l-38 -34 34 38 c33 34 41 42 41 34z m-1534 -109 l29 -33 -32 29 c-18 17
-33 31 -33 33 0 8 8 1 36 -29z m1454 29 c0 -1 -39 -41 -87 -87 l-88 -85 85 88
c79 81 90 92 90 84z m-1374 -109 l29 -33 -32 29 c-18 17 -33 31 -33 33 0 8 8
1 36 -29z m55 -55 c13 -16 12 -17 -3 -4 -17 13 -22 21 -14 21 2 0 10 -8 17
-17z m3794 -93 c38 -38 67 -70 64 -70 -2 0 -36 32 -74 70 -38 39 -67 70 -64
70 2 0 36 -31 74 -70z m-3650 -50 c21 -22 37 -40 34 -40 -3 0 -23 18 -44 40
-21 22 -37 40 -34 40 3 0 23 -18 44 -40z m825 -43 c0 -2 -10 -12 -22 -23 l-23
-19 19 23 c18 21 26 27 26 19z m-734 -49 l29 -33 -32 29 c-18 17 -33 31 -33
33 0 8 8 1 36 -29z m89 -88 c10 -11 16 -20 13 -20 -3 0 -13 9 -23 20 -10 11
-16 20 -13 20 3 0 13 -9 23 -20z m71 -72 l29 -33 -32 29 c-18 17 -33 31 -33
33 0 8 8 1 36 -29z"/>
<path d="M1166 8448 c3 -5 10 -6 15 -3 13 9 11 12 -6 12 -8 0 -12 -4 -9 -9z"/>
<path d="M1120 8379 c0 -6 -7 -8 -16 -5 -9 3 -12 2 -9 -5 4 -5 1 -16 -5 -24
-7 -8 -9 -15 -4 -14 13 0 57 59 45 59 -6 0 -11 -5 -11 -11z"/>
<path d="M1062 8366 c7 -8 15 -12 17 -11 5 6 -10 25 -20 25 -5 0 -4 -6 3 -14z"/>
<path d="M1060 8335 c0 -5 5 -17 10 -25 5 -8 10 -10 10 -5 0 6 -5 17 -10 25
-5 8 -10 11 -10 5z"/>
<path d="M1050 8301 c0 -6 4 -13 10 -16 6 -3 7 1 4 9 -7 18 -14 21 -14 7z"/>
<path d="M660 7446 c0 -8 4 -17 9 -20 5 -4 7 3 4 14 -6 23 -13 26 -13 6z"/>
<path d="M665 7379 c-4 -6 -5 -12 -2 -15 2 -3 7 2 10 11 7 17 1 20 -8 4z"/>
<path d="M646 7342 c-3 -5 1 -9 9 -9 8 0 12 4 9 9 -3 4 -7 8 -9 8 -2 0 -6 -4
-9 -8z"/>
<path d="M11053 7234 c0 -23 1 -24 9 -10 7 12 7 21 0 28 -6 6 -9 0 -9 -18z"/>
<path d="M1040 6450 c0 -5 5 -10 11 -10 5 0 7 5 4 10 -3 6 -8 10 -11 10 -2 0
-4 -4 -4 -10z"/>
<path d="M1250 6436 c0 -2 7 -7 16 -10 8 -3 12 -2 9 4 -6 10 -25 14 -25 6z"/>
<path d="M1360 6342 c0 -11 39 -47 44 -41 2 2 -7 14 -20 27 -13 12 -24 19 -24
14z"/>
<path d="M1459 5939 c-23 -19 -23 -20 -2 -10 12 6 25 16 28 21 10 16 -1 12
-26 -11z"/>
<path d="M1315 5940 c-3 -5 -1 -10 4 -10 6 0 11 5 11 10 0 6 -2 10 -4 10 -3 0
-8 -4 -11 -10z"/>
<path d="M1365 5889 c-11 -16 -1 -19 13 -3 7 8 8 14 3 14 -5 0 -13 -5 -16 -11z"/>
<path d="M1390 5875 c-13 -14 -19 -25 -14 -25 6 0 20 11 32 25 12 14 18 25 14
25 -5 0 -19 -11 -32 -25z"/>
<path d="M1230 5860 c0 -5 8 -19 17 -30 13 -14 19 -16 25 -7 12 19 9 27 -9 20
-12 -5 -15 -2 -10 10 4 11 1 17 -8 17 -8 0 -15 -4 -15 -10z"/>
<path d="M1210 5830 c0 -5 5 -10 11 -10 5 0 7 5 4 10 -3 6 -8 10 -11 10 -2 0
-4 -4 -4 -10z"/>
<path d="M1280 5800 c-6 -11 -9 -20 -8 -20 2 0 11 9 21 20 9 11 13 20 7 20 -5
0 -14 -9 -20 -20z"/>
<path d="M1120 6147 c0 -15 31 -69 37 -63 3 3 -4 20 -16 38 -11 18 -21 29 -21
25z"/>
<path d="M1123 6048 c0 -44 1 -48 7 -23 8 30 8 29 9 -8 0 -21 -2 -36 -6 -34
-5 3 -9 -7 -10 -21 l-1 -27 14 25 c17 32 17 100 0 123 -12 15 -13 11 -13 -35z"/>
<path d="M592 6110 c-7 -11 -8 -20 -3 -20 9 0 24 30 18 36 -1 2 -8 -6 -15 -16z"/>
<path d="M570 6065 c0 -8 4 -15 10 -15 5 0 7 7 4 15 -4 8 -8 15 -10 15 -2 0
-4 -7 -4 -15z"/>
<path d="M580 5992 c0 -4 4 -13 9 -20 7 -11 9 -11 14 1 3 9 -1 18 -9 21 -8 3
-14 2 -14 -2z"/>
</g>
</svg>
